<?xml version="1.0" encoding="UTF-8"?>
<svg width="1200pt" height="1200pt" version="1.1" viewBox="0 0 1200 1200" xmlns="http://www.w3.org/2000/svg">
 <path d="m257.06 428.06c114.56-114.56 351.28-351.24 351.28-351.24 10.828-10.828 29.484-13.406 53.578-7.3125 50.812 12.844 128.02 63.75 201.79 137.53 73.828 73.828 124.69 151.03 137.53 201.79 6.0938 24.094 3.5156 42.75-7.3125 53.578l-225.14 225.14c-18.516 18.516-28.875 43.594-28.875 69.75l0.046875 286.92c0 15.328-11.344 30.328-32.719 43.031-45 26.859-135.56 45.469-239.95 45.469s-194.95-18.609-239.95-45.469c-21.328-12.75-32.719-27.75-32.719-43.031v-465.42c0-56.531 22.453-110.77 62.438-150.74zm725.63 28.219c-5.25 3.6562-12.328 5.0625-20.812 4.7344-11.484-0.42188-25.266-4.0312-40.781-10.312-48.281-19.641-112.31-65.203-174.1-126.94-61.781-61.781-107.34-125.81-126.94-174.1-6.2812-15.516-9.8906-29.297-10.312-40.781-0.23438-5.9062 0.375-11.156 2.0156-15.562 1.875-3.75 3.6562-6.6562 5.0625-8.0625 5.3906-5.3906 13.5-7.4531 23.578-7.0781 11.484 0.42188 25.266 4.0312 40.781 10.312 48.281 19.641 112.31 65.203 174.1 126.94 61.781 61.781 107.34 125.81 126.94 174.1 6.2812 15.516 9.8906 29.297 10.312 40.781 0.375 10.078-1.6875 18.188-7.0781 23.578-0.70312 0.70312-1.6406 1.5-2.7656 2.3438zm-45-118.08-68.016 68.016c21.984 15.188 41.719 26.25 57.609 32.344 11.203 4.2656 20.719 6.0938 27.984 5.4844 6-0.51562 10.734-2.5781 14.203-6.0469 3.4219-3.4219 5.5312-8.2031 6.0469-14.203 0.60938-7.2656-1.2188-16.781-5.4844-27.984-6.0469-15.891-17.156-35.578-32.344-57.609zm-195.19-198.1-70.922 70.922c22.453 31.078 52.312 66 87.234 100.92s69.891 64.781 100.92 87.234l70.922-70.922c-22.453-31.078-52.312-66-87.234-100.92s-69.891-64.781-100.92-87.234zm-77.953 60.984 68.016-68.016c-22.031-15.188-41.719-26.25-57.609-32.344-11.203-4.2656-20.719-6.0938-27.984-5.4844-6 0.51562-10.734 2.5781-14.203 6.0469-3.4219 3.4219-5.5312 8.2031-6.0469 14.203-0.60938 7.2656 1.2188 16.781 5.4844 27.984 6.0469 15.891 17.156 35.578 32.344 57.609z" fill-rule="evenodd"/>
</svg>
