<?xml version="1.0" encoding="UTF-8"?>
<svg width="1200pt" height="1200pt" version="1.1" viewBox="0 0 1200 1200" xmlns="http://www.w3.org/2000/svg">
 <path d="m708.89 846.71s155.76 67.922 167.72 70.641c35.344 8.1562 74.109-8.9062 110.48-45.516 52.5-52.828 100.41-146.48 126.28-258.61 25.828-112.12 23.766-217.36-0.32812-287.81-16.641-48.797-44.016-81.094-79.359-89.25l-509.81-120.37c-0.28125-0.046874-0.5625-0.09375-0.84375-0.14062-248.81-23.672-459.28 212.06-455.81 420.66v455.29c0 16.125 13.312 32.016 38.344 45.422 52.969 28.312 159.61 47.953 282.52 47.953 122.9 0 229.55-19.594 282.52-47.953 25.031-13.406 38.344-29.297 38.344-45.422v-144.94zm182.48-506.29c20.109 68.531 20.391 166.31-3.5156 270.14-18.422 79.875-48.188 150.28-82.828 202.6-20.109-68.531-20.391-166.31 3.5156-270.14 18.422-79.875 48.188-150.28 82.828-202.6z" fill-rule="evenodd"/>
</svg>
