<?xml version="1.0" encoding="UTF-8"?>
<svg width="1200pt" height="1200pt" version="1.1" viewBox="0 0 1200 1200" xmlns="http://www.w3.org/2000/svg">
 <path d="m1068 120h-357.07c-6.6289 0-12 5.3711-12 12v215.89c0 6.6289 5.3711 12 12 12h31.996c-6.2578 208.46-174.58 376.78-383.04 383.04v-31.996c0-6.6289-5.3711-12-12-12l-215.89-0.003906c-6.6289 0-12 5.3711-12 12v357.07c0 6.6289 5.3711 12 12 12h215.89c6.6289 0 12-5.3711 12-12v-32.613c369.71-6.3828 669.11-305.78 675.49-675.49h32.613c6.6289 0 12-5.3711 12-12v-215.89c0-6.6289-5.3711-12-12-12zm-255.8 215.89v-191.89h65.266v191.89zm89.266 0v-191.89h65.266v191.89zm-178.53-191.89h65.262v191.89h-65.262zm-387.04 733.46h-191.89v-65.266h191.89zm-191.89 24h191.89v65.266h-191.89zm191.89-178.53v65.258l-191.89 0.003906v-65.262zm0 333.07h-191.89v-65.266h191.89zm675.69-696.1c-6.3398 356.53-295.15 645.35-651.69 651.68l0.007813-244.52c221.73-6.2539 400.92-185.45 407.17-407.17zm44.414-24.004h-65.266v-191.89h65.266z"/>
</svg>
