<?xml version="1.0" encoding="UTF-8"?>
<svg width="1200pt" height="1200pt" version="1.1" viewBox="0 0 1200 1200" xmlns="http://www.w3.org/2000/svg">
 <path d="m130.03 212.95c0-25.406 19.312-49.922 54.703-71.016 77.766-46.406 234.37-78.375 414.79-78.375s337.03 31.969 414.79 78.375c35.391 21.094 54.703 45.609 54.703 71.016v773.11c0 25.406-19.312 49.922-54.703 71.016-77.766 46.406-234.37 78.375-414.79 78.375s-337.03-31.969-414.79-78.375c-35.391-21.094-54.703-45.609-54.703-71.016zm926.95-0.51562v0.51562c0 22.078-18.094 42.375-48.844 60.75-76.594 45.703-230.95 76.688-408.66 76.688s-332.06-30.984-408.66-76.688c-30.469-18.188-48.469-38.25-48.844-60.047v-0.65625c0-22.078 18.094-42.375 48.844-60.703 76.594-45.703 230.95-76.688 408.66-76.688s332.06 30.984 408.66 76.688c30.516 18.188 48.562 38.344 48.844 60.188zm-788.39-73.078v147.24c78.422 24.328 197.58 39.938 330.89 39.938s252.47-15.609 330.89-39.938v-147.24c-78.422-24.328-197.58-39.938-330.89-39.938s-252.47 15.609-330.89 39.938zm673.78 3.8906v139.45c13.828-4.6875 26.156-9.7031 36.891-14.906 19.172-9.375 33.281-19.641 41.578-30.281 6.1406-7.9219 9.2344-16.125 9.2344-24.516 0-8.3438-3.0938-16.594-9.2344-24.516-8.2969-10.688-22.359-20.906-41.578-30.281-10.734-5.25-23.062-10.219-36.891-14.906zm-685.78 0c-13.828 4.6875-26.156 9.7031-36.891 14.906-19.172 9.375-33.281 19.641-41.578 30.281-6.1406 7.9219-9.2344 16.125-9.2344 24.516 0 8.3438 3.0938 16.594 9.2344 24.516 8.25 10.688 22.359 20.906 41.578 30.281 10.734 5.25 23.062 10.219 36.891 14.906v-139.45z" fill-rule="evenodd"/>
</svg>
