<?xml version="1.0" encoding="UTF-8"?>
<svg width="1200pt" height="1200pt" version="1.1" viewBox="0 0 1200 1200" xmlns="http://www.w3.org/2000/svg">
 <path d="m421.46 840.11c-6.6289 0-12 5.3711-12 12v215.89c0 6.6289 5.3711 12 12 12h357.07c6.6289 0 12-5.3711 12-12v-215.89c0-6.6289-5.3711-12-12-12h-32.309v-480.21h32.309c6.6289 0 12-5.3711 12-12v-215.89c0-6.6289-5.3711-12-12-12h-357.07c-6.6289 0-12 5.3711-12 12v215.89c0 6.6289 5.3711 12 12 12h32.309v480.21zm12 24h65.266v191.89h-65.266zm243.8 0v191.89h-65.266v-191.89zm-89.266 191.89h-65.266v-191.89h65.266zm178.54 0h-65.266v-191.89h65.266zm0-720.11h-65.266v-191.89h65.266zm-243.8 0v-191.89h65.266v191.89zm89.266-191.89h65.266v191.89h-65.266zm-178.54 0h65.266v191.89h-65.266zm44.309 215.89h244.45v480.21h-244.45z"/>
</svg>
