<?xml version="1.0" encoding="UTF-8"?>
<svg width="1200pt" height="1200pt" version="1.1" viewBox="0 0 1200 1200" xmlns="http://www.w3.org/2000/svg">
 <path d="m1020 120h-840c-33 0-60 27-60 60v840c0 33 27 60 60 60h840c33 0 60-27 60-60v-840c0-33-27-60-60-60zm-840 40h840c11 0 20 9 20 20v100h-880v-100c0-11 9-20 20-20zm60 160h720v640h-720zm780 720h-840c-11 0-20-9-20-20v-700h40v660c0 11 9 20 20 20h760c11 0 20-9 20-20v-660h40v700c0 11-9 20-20 20z"/>
 <path d="m940 240h20c11 0 20-9 20-20s-9-20-20-20h-20c-11 0-20 9-20 20s9 20 20 20z"/>
 <path d="m850 240h20c11 0 20-9 20-20s-9-20-20-20h-20c-11 0-20 9-20 20s9 20 20 20z"/>
 <path d="m760 240h20c11 0 20-9 20-20s-9-20-20-20h-20c-11 0-20 9-20 20s9 20 20 20z"/>
 <path d="m260 240h278.4c11 0 20-9 20-20s-9-20-20-20h-278.4c-11 0-20 9-20 20s9 20 20 20z"/>
 <path d="m720 600c-21 0-41 4.1992-60 12-38-15.602-81.602-15.602-119.6-0.19922-18.797-7.6016-39-11.801-60.398-11.801-88.199 0-160 71.801-160 160s71.801 160 160 160c21.398 0 41.602-4.1992 60.199-11.801 19 7.6016 39 11.801 59.801 11.801 21 0 41.199-4.1992 60-12 19 7.8008 39 12 60 12 88.199 0 160-71.801 160-160s-71.801-160-160-160zm-360 160c0-66.199 53.801-120 120-120s120 53.801 120 120-53.801 120-120 120-120-53.801-120-120zm226.4 119.2c32.801-29.398 53.602-71.801 53.602-119.2s-20.801-89.801-53.602-119.2c22-2.3984 44.801 1 65 10.801 42.199 20 68.602 61.398 68.602 108.4s-26.199 88.398-68.801 108.4c-20 9.6016-42.801 13.203-64.801 10.801zm133.6 0.80078c-4.3984 0-8.8008-0.19922-13.199-0.80078 33.598-29.598 53.199-72.398 53.199-119.2s-19.602-89.602-53.199-119.2c4.3984-0.60156 8.8008-0.80078 13.199-0.80078 66.199 0 120 53.801 120 120s-53.801 120-120 120z"/>
 <path d="m709.8 539.2c3.3984 0.60156 6.8008 0.80078 10.199 0.80078s6.8008-0.19922 10-0.80078c19.398-2.8008 35.398-14.398 44-31.602 8.3984-16.801 8-36.801-1.1992-53.199l-35.398-64.199c-7-12.801-28-12.801-35 0l-35.398 64.199c-9 16.398-9.3984 36.199-1.1992 53.199 8.7969 17.203 24.797 28.801 43.996 31.602zm-7.6016-65.398 17.801-32.402 17.801 32.398c2.8008 5 2.8008 10.801 0.19922 16-1.6016 3.1992-5.3984 8.6016-14 9.8008-2.8008 0.39844-5.6016 0.39844-8.3984 0-8.3984-1.1992-12.398-6.6016-14-9.8008-2.4023-5.1953-2.2031-10.996 0.59766-15.996z"/>
 <path d="m429.8 539.2c3.3984 0.60156 6.8008 0.80078 10.199 0.80078s6.8008-0.19922 10-0.80078c19.398-2.8008 35.398-14.398 44-31.602 8.3984-16.801 8-36.801-1.1992-53.199l-35.398-64.199c-7-12.801-28-12.801-35 0l-35.398 64.199c-9 16.398-9.3984 36.199-1.1992 53.199 8.7969 17.203 24.797 28.801 43.996 31.602zm-7.6016-65.398 17.801-32.402 17.801 32.398c2.8008 5 2.8008 10.801 0.19922 16-1.6016 3.1992-5.3984 8.6016-14 9.8008-2.8008 0.39844-5.6016 0.39844-8.3984 0-8.3984-1.1992-12.398-6.6016-14-9.8008-2.4023-5.1953-2.2031-10.996 0.59766-15.996z"/>
</svg>
