<?xml version="1.0" encoding="UTF-8"?>
<svg width="1200pt" height="1200pt" version="1.1" viewBox="0 0 1200 1200" xmlns="http://www.w3.org/2000/svg">
 <path d="m1125.4 386.76-0.046875 0.046875-374.68 379.36v316.92c0 9-6.375 18-18.891 25.453-24.375 14.531-73.453 24.75-129.98 24.75s-105.61-10.219-129.98-24.75c-12.516-7.4531-18.891-16.453-18.891-25.453v-319.92l-372.32-372.32c-2.25-1.0312-4.2188-2.3906-5.8594-4.0312-6.375-6.375-8.2031-17.25-4.6406-31.359 6.9375-27.516 34.406-69.422 74.438-109.41 39.984-39.984 81.891-67.453 109.41-74.438 14.062-3.5625 24.891-1.7344 31.266 4.5469l0.09375 0.09375 167.68 168.61v-227.95c0-9 6.375-18 18.891-25.453 24.375-14.531 73.453-24.75 129.98-24.75s105.61 10.219 129.98 24.75c12.516 7.4531 18.891 16.453 18.891 25.453v223.82l164.16-164.48c6.3281-6.375 17.203-8.2031 31.359-4.6406 27.516 6.9375 69.422 34.406 109.41 74.438 39.984 39.984 67.453 81.891 74.438 109.41 3.5625 14.062 1.6875 24.938-4.5938 31.312zm-972.42-132.24c32.766-32.766 66.75-57 92.344-67.406 7.9688-3.2344 15-5.1094 20.906-5.3438 4.5-0.1875 8.1562 0.5625 10.594 2.9531 2.3906 2.3906 3.1406 6.0938 2.9531 10.594-0.23438 5.8594-2.1094 12.938-5.3438 20.906-10.406 25.594-34.641 59.578-67.406 92.344-32.766 32.766-66.75 57-92.344 67.406-7.9688 3.2344-15 5.1094-20.906 5.3438-4.5 0.1875-8.1562-0.5625-10.547-2.9531-2.3906-2.3906-3.1406-6.0938-2.9531-10.594 0.23438-5.8594 2.1094-12.938 5.3438-20.906 10.406-25.594 34.641-59.578 67.406-92.344zm894.1 0c32.766 32.766 57 66.75 67.406 92.344 3.2344 7.9688 5.1094 15 5.3438 20.906 0.1875 4.5-0.5625 8.1562-2.9531 10.594-2.3906 2.3906-6.0938 3.1406-10.547 2.9531-5.8594-0.23437-12.938-2.1094-20.906-5.3438-25.594-10.406-59.578-34.641-92.344-67.406-32.766-32.766-57-66.75-67.406-92.344-3.2344-7.9688-5.1094-15-5.3438-20.906-0.1875-4.5 0.5625-8.1562 2.9531-10.594 2.3906-2.3906 6.0938-3.1406 10.547-2.9531 5.8594 0.23437 12.938 2.1094 20.906 5.3438 25.641 10.406 59.578 34.641 92.344 67.406zm-937.36 67.875c-5.8594 8.2031-10.359 15.469-13.266 21.422-2.7188 5.5781-4.0781 10.219-4.2656 13.688-0.1875 3.9375 1.0312 6.8438 3.0469 8.8125 1.9688 1.9688 4.875 3.2344 8.8125 3.0469 3.4219-0.14063 8.0625-1.5469 13.688-4.2656 5.9531-2.9062 13.219-7.4062 21.422-13.266zm980.63 0-29.438 29.438c8.2031 5.8594 15.469 10.359 21.422 13.266 5.5781 2.7188 10.266 4.0781 13.688 4.2656 3.9375 0.1875 6.8438-1.0312 8.8125-3.0469 1.9688-1.9688 3.2344-4.875 3.0469-8.8125-0.14062-3.4219-1.5469-8.0625-4.2656-13.688-2.9062-5.9531-7.4062-13.219-13.266-21.422zm-101.44-103.88-31.078 31.078c-0.28125 0.28125-0.5625 0.51563-0.89063 0.75 11.625 15.047 26.906 32.344 44.438 49.875s34.781 32.766 49.781 44.391l31.922-31.922c-11.625-15.047-26.859-32.297-44.391-49.781-17.531-17.531-34.781-32.719-49.781-44.391zm-777.79 0c-15.047 11.625-32.297 26.859-49.781 44.391-17.531 17.531-32.766 34.781-44.391 49.781l31.922 31.922c15.047-11.625 32.297-26.859 49.781-44.391 17.531-17.531 32.766-34.781 44.391-49.781zm738.66 22.219 29.438-29.438c-8.2031-5.8594-15.469-10.359-21.422-13.266-5.5781-2.7188-10.266-4.0781-13.688-4.2656-3.9375-0.1875-6.8438 1.0312-8.8125 3.0469-1.9688 1.9688-3.2344 4.875-3.0469 8.8125 0.14062 3.4219 1.5469 8.0625 4.2656 13.641 2.9062 5.9531 7.4062 13.219 13.266 21.422zm-728.9-29.438 29.438 29.438c5.8594-8.2031 10.359-15.469 13.266-21.422 2.7188-5.5781 4.0781-10.219 4.2656-13.641 0.1875-3.9375-1.0312-6.8438-3.0469-8.8125-1.9688-1.9688-4.875-3.1875-8.8125-3.0469-3.4219 0.14063-8.0625 1.5469-13.688 4.2656-5.9531 2.9062-13.219 7.4062-21.422 13.266zm380.95-132.56c46.359 0 87.469 6.8906 112.97 17.625 7.9219 3.3281 14.25 6.9844 18.562 11.016 3.2812 3.0469 5.3906 6.1875 5.3906 9.5625s-2.0625 6.5156-5.3906 9.5625c-4.3125 3.9844-10.641 7.6875-18.562 11.016-25.5 10.734-66.609 17.625-112.97 17.625s-87.469-6.8906-112.97-17.625c-7.9219-3.3281-14.25-6.9844-18.562-11.016-3.2812-3.0469-5.3906-6.1875-5.3906-9.5625 0-3.4219 2.0625-6.5156 5.3906-9.5625 4.3125-3.9844 10.641-7.6875 18.562-11.016 25.5-10.734 66.609-17.625 112.97-17.625zm-66.609 15.656v45.141c18.844 2.3906 41.812 3.8438 66.609 3.8438 24.75 0 47.766-1.4062 66.609-3.8438v-45.141c-18.844-2.3906-41.812-3.8438-66.609-3.8438s-47.719 1.4062-66.609 3.8438zm-12 1.7344c-9.9375 1.6406-18.281 3.6094-24.516 5.7656-5.8594 2.0156-10.125 4.3594-12.656 6.6562-2.9062 2.6719-4.0781 5.5781-4.0781 8.3906s1.1719 5.7188 4.0781 8.3906c2.5312 2.2969 6.7969 4.6406 12.656 6.6562 6.2812 2.1562 14.578 4.125 24.516 5.7656zm157.18 0v41.625c9.9375-1.6406 18.234-3.6094 24.516-5.7656 5.8594-2.0156 10.125-4.3594 12.656-6.6562 2.9062-2.6719 4.0781-5.5781 4.0781-8.3906s-1.1719-5.7188-4.0781-8.3906c-2.5312-2.2969-6.7969-4.6406-12.656-6.6562-6.2812-2.1562-14.578-4.125-24.516-5.7656z" fill-rule="evenodd"/>
</svg>
