<?xml version="1.0" encoding="UTF-8"?>
<svg width="1200pt" height="1200pt" version="1.1" viewBox="0 0 1200 1200" xmlns="http://www.w3.org/2000/svg">
 <path d="m1060 300h-80c-11 0-20 9-20 20h-720c0-11-9-20-20-20h-80c-11 0-20 9-20 20v200c0 11 9 20 20 20h80c11 0 20-9 20-20h249.8l1 22.602c-6.4023 3.3984-10.801 9.7969-10.801 17.398v80c0 9.8008 7 17.398 16.199 19.199l3.8008 81.801c0.39844 10.602 9.1992 19 20 19h20v60c0 11 9 20 20 20h20v40c0 11 9 20 20 20s20-9 20-20v-40h20c11 0 20-9 20-20v-60h20c10.602 0 19.398-8.3984 20-19l3.8008-81.602c9.1992-2 16.199-9.5977 16.199-19.398v-80c0-7.6016-4.3984-14-10.801-17.398l1-22.602h249.8c0 11 9 20 20 20h80c11 0 20-9 20-20v-200c0-11-9-20-20-20zm-900 200v-160h40v160zm520 80v40h-160v-40zm-60 220h-40v-40h40zm20-80h-100.8l-2.8008-60h127.4l-2.8008 60zm51.199-240c-7.8008 0-14.398 4.6016-17.602 11.199 0 0.19922-0.19922 0.19922-0.19922 0.39844-1 1.8008-1.3984 4-1.6016 6.1992 0 0.60156-0.39844 1-0.39844 1.3984v0.60156 0.39844 0.19922l-2 39.605h-138.6l-1.8008-39.801v-0.19922-0.39844-0.60156c0-0.60156-0.39844-1-0.39844-1.6016-0.19922-2-0.60156-4-1.3984-5.8008-0.19922-0.39844-0.60156-0.80078-0.80078-1.1992-1-1.8008-2.1992-3.6016-3.8008-5 0 0-0.19922 0-0.19922-0.19922-1.8008-1.6016-4-3-6.3984-3.8008h-0.39844c-2-0.80078-4.1992-1.3984-6.6016-1.3984h-269v-120h720v120zm308.8 20v-160h40v160z"/>
</svg>
