<?xml version="1.0" encoding="UTF-8"?>
<svg width="1200pt" height="1200pt" version="1.1" viewBox="0 0 1200 1200" xmlns="http://www.w3.org/2000/svg">
 <path d="m147.14 904.45-24.234 23.859c-1.125 1.125-1.7812 2.6719-1.7812 4.2656v48.094c0 25.875 19.641 50.812 55.688 72.281 79.219 47.25 238.82 79.875 422.72 79.875 183.84 0 343.45-32.578 422.72-79.875 36-21.469 55.688-46.406 55.688-72.281v-48.094c0-1.5938-0.65625-3.1406-1.7812-4.2656l-24.234-23.859v-694.08c0-24.516-18.609-48.234-52.781-68.578-74.906-44.672-225.79-75.516-399.56-75.516-173.81 0-324.66 30.797-399.56 75.516-34.172 20.391-52.781 44.062-52.781 68.578v694.08z" fill-rule="evenodd"/>
</svg>
