<?xml version="1.0" encoding="UTF-8"?>
<svg width="1200pt" height="1200pt" version="1.1" viewBox="0 0 1200 1200" xmlns="http://www.w3.org/2000/svg">
 <path d="m980.8 478.6h-102.8c-13.398 0-27 1.6016-40 5l-358 89.398v-217.8c0-36.199 24.398-68.398 59.398-78.398l169.6-48.602c23.398-6.6016 39.801-28.199 39.801-52.398 0-6.6016-1.1992-13.199-3.8008-20-9.1992-23-32.199-37-56.801-34l-340.6 38c-107 11.801-187.6 102-187.6 209.6v604.4l-37.801 75.801c-3.1992 6.1992-2.8008 13.602 0.80078 19.398 3.6016 5.8008 10 9.3984 17 9.3984h360c7 0 13.398-3.6016 17-9.3984 3.6016-5.8008 4-13.199 0.80078-19.398l-37.801-75.797v-162l380.4-163c12.602-5.3984 26-8.6016 39.602-9.6016v59.602c0 11 9 20 20 20h120c11 0 20-9 20-20v-60c11 0 20-9 20-20v-40.801c0-54.801-44.602-99.398-99.199-99.398zm-629-279.2 340.6-38c6.3984-0.80078 12.602 3 15 8.8008 0.80078 2 1 3.8008 1 5.3984 0 6.3984-4.3984 12.199-10.801 14l-169.6 48.602c-52 14.801-88.398 62.801-88.398 116.8v43.398h-239.6v-29.199c0-87 65.199-160 151.8-169.8zm-179.4 839.2 20-40h255.2l20 40zm672.4-426.6-392.4 168.2h-0.19922c-0.19922 0-0.19922 0.19922-0.39844 0.39844-2.1992 1-4.1992 2.3984-6 4-0.80078 0.80078-1.3984 2-2 3-0.80078 1.1992-1.6016 2.1992-2.1992 3.3984-0.80078 2-1 4-1.1992 6 0 0.60156-0.39844 1-0.39844 1.6016v159.8h-240.01v-520h240v160c0 0.80078 0.39844 1.6016 0.39844 2.3984 0.19922 0.80078 0 1.6016 0.19922 2.3984 0.19922 0.60156 0.39844 0.80078 0.60156 1.3984 0.39844 1.3984 1 2.6016 1.8008 3.8008 0.60156 1 1.1992 2 2 3s1.8008 1.8008 2.8008 2.6016c1 0.80078 2 1.6016 3 2 1.1992 0.60156 2.1992 1 3.6016 1.1992 1.3984 0.39844 2.6016 0.60156 4 0.80078 0.60156 0 1 0.39844 1.6016 0.39844 0.80078 0 1.6016-0.39844 2.3984-0.39844 0.80078 0 1.6016 0 2.3984-0.19922l382.6-95.602c10-2.3984 20.199-3.8008 30.398-3.8008h102.8c32.602 0 59.199 26.602 59.199 59.199v20.801h-130.2c-22.203 0.20703-44.203 4.8047-64.801 13.605zm175.2 66.602h-80v-40h80z"/>
 <path d="m968.4 958c3.8008 0.39844 7.6016 0.60156 11.602 0.60156s7.8008-0.19922 11.602-0.60156c27.602-3.3984 50.801-19.801 61.801-44.199 10.602-23.199 8.3984-49.801-6-71.199l-50.801-75.199c-7.3984-11-25.801-11-33.199 0l-50.801 75.199c-14.398 21.199-16.602 47.801-6 71.199 11.199 24.398 34.199 40.801 61.797 44.199zm-22.598-93 34.199-50.602 34.199 50.801c6.6016 9.8008 7.6016 21.398 2.8008 32.199-5.3984 11.602-16.398 19.398-30.199 21-4.3984 0.60156-9.1992 0.60156-13.602 0-13.801-1.6016-24.801-9.3984-30.199-21-4.8008-10.797-3.8008-22.598 2.8008-32.398z"/>
</svg>
