<?xml version="1.0" encoding="UTF-8"?>
<svg width="1200pt" height="1200pt" version="1.1" viewBox="0 0 1200 1200" xmlns="http://www.w3.org/2000/svg">
 <path d="m389.75 1023.1c-10.348 0-18.746-8.3984-18.746-18.746v-517.92c0-10.348 8.3984-18.746 18.746-18.746s18.746 8.3984 18.746 18.746v517.89c-0.003907 10.379-8.3984 18.773-18.746 18.773z"/>
 <path d="m810.25 1023.1c-10.348 0-18.746-8.3984-18.746-18.746l0.003907-517.92c0-10.348 8.3984-18.746 18.746-18.746 10.348 0 18.746 8.3984 18.746 18.746v517.89c-0.003906 10.379-8.3984 18.773-18.75 18.773z"/>
 <path d="m810.25 416.33c-10.348 0-18.746-8.3984-18.746-18.746v-2.293c0-105.87-85.641-191.48-191.51-191.48-105.59 0-191.51 85.918-191.51 191.51v2.293c0 10.348-8.3984 18.746-18.746 18.746-10.348 0-18.746-8.3984-18.746-18.746v-2.293c0-126.79 102.8-229 229-229 126.41 0 229 102.5 229 229v2.293c0.007812 10.32-8.3867 18.715-18.738 18.715z"/>
 <path d="m861.62 1146.1c-10.348 0-18.746-8.3984-18.746-18.746v-77.086c0-15.027-12.207-27.234-27.234-27.234h-431.29c-15.027 0-27.234 12.207-27.234 27.234v77.086c0 10.348-8.3984 18.746-18.746 18.746s-18.746-8.3984-18.746-18.746v-77.086c0-35.691 29.031-64.727 64.727-64.727h431.29c35.691 0 64.727 29.031 64.727 64.727v77.086c0 10.348-8.3945 18.746-18.746 18.746z"/>
 <path d="m812.98 505.13h-425.99c-34.328 0-62.277-27.949-62.277-62.277v-1.7656c0-34.328 27.949-62.277 62.277-62.277h426c34.328 0 62.277 27.949 62.277 62.277v1.7656c-0.003907 34.359-27.918 62.277-62.281 62.277zm-425.99-88.801c-13.664 0-24.758 11.125-24.758 24.758v1.7656c0 13.664 11.125 24.758 24.758 24.758h426c13.664 0 24.758-11.125 24.758-24.758v-1.7656c0-13.664-11.125-24.758-24.758-24.758z"/>
 <path d="m896.39 1146.1h-592.78c-10.348 0-18.746-8.3984-18.746-18.746s8.3984-18.746 18.746-18.746h592.78c10.348 0 18.746 8.3984 18.746 18.746s-8.3984 18.746-18.746 18.746z"/>
 <path d="m600 203.78c-41.332 0-74.949-33.617-74.949-74.949s33.617-74.949 74.949-74.949 74.949 33.617 74.949 74.949-33.617 74.949-74.949 74.949zm0-112.38c-20.637 0-37.43 16.793-37.43 37.43s16.793 37.43 37.43 37.43 37.43-16.793 37.43-37.43-16.793-37.43-37.43-37.43z"/>
 <path d="m389.75 883.04h-77.305c-25.406 0-46.074-20.668-46.074-46.074v-183.24c0-25.406 20.668-46.074 46.074-46.074h77.305c10.348 0 18.746 8.3984 18.746 18.746 0 10.348-8.3984 18.746-18.746 18.746h-77.305c-4.7109 0-8.5508 3.8438-8.5508 8.5508v183.24c0 4.7109 3.8438 8.5508 8.5508 8.5508h77.305c10.348 0 18.746 8.3984 18.746 18.746-0.003907 10.352-8.3984 18.809-18.746 18.809z"/>
 <path d="m887.56 883.04h-77.305c-10.348 0-18.746-8.3984-18.746-18.746 0-10.348 8.3984-18.746 18.746-18.746h77.305c4.7109 0 8.5508-3.8438 8.5508-8.5508l0.003906-183.23c0-4.7109-3.8438-8.5508-8.5508-8.5508h-77.305c-10.348 0-18.746-8.3984-18.746-18.746 0-10.348 8.3984-18.746 18.746-18.746h77.305c25.406 0 46.074 20.668 46.074 46.074v183.24c-0.003907 25.344-20.672 46.008-46.078 46.008z"/>
 <path d="m487.19 858.16c-30.148-30.117-46.723-70.211-46.723-112.81s16.605-82.664 46.723-112.81c62.34-62.34 163.19-62.34 225.62 0 62.34 62.34 62.371 163.19 0 225.62-62.152 62.09-163.01 62.555-225.62 0zm112.81-234.86c-67.297 0-122.05 54.75-122.05 122.05s54.75 122.05 122.05 122.05 122.05-54.75 122.05-122.05c0-67.301-54.75-122.05-122.05-122.05z"/>
 <path d="m600 828.5c-45.855 0-83.16-37.305-83.16-83.16s37.305-83.16 83.16-83.16 83.16 37.305 83.16 83.16-37.305 83.16-83.16 83.16zm0-128.83c-25.191 0-45.672 20.48-45.672 45.672s20.48 45.672 45.672 45.672 45.672-20.48 45.672-45.672-20.48-45.672-45.672-45.672z"/>
</svg>
