<?xml version="1.0" encoding="UTF-8"?>
<svg width="1200pt" height="1200pt" version="1.1" viewBox="0 0 1200 1200" xmlns="http://www.w3.org/2000/svg">
 <path d="m280.87 406.87c0-17.719 13.219-34.969 37.875-49.641 52.734-31.453 158.9-53.203 281.21-53.203 122.34 0 228.52 21.75 281.21 53.203 24.656 14.719 37.875 31.969 37.875 49.641v122.86c63.281 14.812 115.59 33.938 152.34 55.828 39.938 23.812 61.828 51.422 61.828 80.109v61.172c0 28.688-21.891 56.25-61.828 80.109-88.359 52.734-266.39 89.062-471.47 89.062-205.08 0-383.06-36.328-471.47-89.062-39.938-23.812-61.828-51.422-61.828-80.109v-61.172c0-28.688 21.891-56.25 61.828-80.109 36.75-21.938 89.062-41.016 152.34-55.828v-122.86zm319.13 371.86c19.781 0 37.406 2.8594 48.281 7.4531 3.0469 1.2656 5.4844 2.6719 7.1719 4.2188 0.65625 0.60937 1.2656 1.0781 1.2656 1.7344s-0.65625 1.125-1.2656 1.7344c-1.6406 1.5469-4.125 2.9062-7.1719 4.2188-10.875 4.5938-28.453 7.4531-48.281 7.4531-19.781 0-37.406-2.8594-48.281-7.4531-3.0469-1.2656-5.4844-2.6719-7.1719-4.2188-0.65625-0.60938-1.2656-1.0781-1.2656-1.7344s0.65625-1.125 1.2656-1.7344c1.6406-1.5469 4.125-2.9062 7.1719-4.2188 10.875-4.5938 28.453-7.4531 48.281-7.4531zm-280.55-29.625c19.781 0 37.406 2.8594 48.281 7.4531 3.0469 1.2656 5.4844 2.6719 7.1719 4.2188 0.65625 0.60937 1.2656 1.0781 1.2656 1.7344s-0.65625 1.125-1.2656 1.7344c-1.6406 1.5469-4.125 2.9062-7.1719 4.2188-10.875 4.5938-28.453 7.4531-48.281 7.4531-19.781 0-37.406-2.8594-48.281-7.4531-3.0469-1.2656-5.4844-2.6719-7.1719-4.2188-0.65625-0.60938-1.2656-1.0781-1.2656-1.7344s0.65625-1.125 1.2656-1.7344c1.6406-1.5469 4.125-2.9062 7.1719-4.2188 10.875-4.5938 28.453-7.4531 48.281-7.4531zm561.1 0c19.781 0 37.406 2.8594 48.281 7.4531 3.0469 1.2656 5.4844 2.6719 7.1719 4.2188 0.65625 0.60937 1.2656 1.0781 1.2656 1.7344s-0.65625 1.125-1.2656 1.7344c-1.6406 1.5469-4.125 2.9062-7.1719 4.2188-10.875 4.5938-28.453 7.4531-48.281 7.4531-19.781 0-37.406-2.8594-48.281-7.4531-3.0469-1.2656-5.4844-2.6719-7.1719-4.2188-0.65625-0.60938-1.2656-1.0781-1.2656-1.7344s0.65625-1.125 1.2656-1.7344c1.6406-1.5469 4.125-2.9062 7.1719-4.2188 10.875-4.5938 28.453-7.4531 48.281-7.4531zm-700.74-96.891c19.781 0 37.406 2.8594 48.281 7.4531 3.0469 1.2656 5.4844 2.6719 7.1719 4.2188 0.65625 0.60938 1.2656 1.0781 1.2656 1.7344s-0.65625 1.125-1.2656 1.7344c-1.6406 1.5469-4.125 2.9062-7.1719 4.2188-10.875 4.5938-28.453 7.5-48.281 7.5-19.781 0-37.406-2.9062-48.281-7.5-3.0469-1.2656-5.4844-2.6719-7.1719-4.2188-0.65625-0.60937-1.2656-1.0781-1.2656-1.7344s0.65625-1.125 1.2656-1.7344c1.6406-1.5469 4.125-2.9062 7.1719-4.2188 10.875-4.5938 28.453-7.4531 48.281-7.4531zm819.56 0c19.781 0 37.406 2.8594 48.281 7.4531 3.0469 1.2656 5.4844 2.6719 7.1719 4.2188 0.65625 0.60938 1.2656 1.0781 1.2656 1.7344s-0.65625 1.125-1.2656 1.7344c-1.6406 1.5469-4.125 2.9062-7.1719 4.2188-10.875 4.5938-28.453 7.5-48.281 7.5-19.781 0-37.406-2.9062-48.281-7.5-3.0469-1.2656-5.4844-2.6719-7.1719-4.2188-0.65625-0.60937-1.2656-1.0781-1.2656-1.7344s0.65625-1.125 1.2656-1.7344c1.6406-1.5469 4.125-2.9062 7.1719-4.2188 10.875-4.5938 28.453-7.4531 48.281-7.4531zm-399.32-336.28c102.75 0 193.87 15.375 250.36 39.188 18.234 7.6875 32.766 16.219 42.75 25.453 8.9062 8.2969 14.062 17.016 14.062 26.203s-5.1094 17.906-14.062 26.203c-9.9375 9.2344-24.469 17.766-42.75 25.453-56.484 23.812-147.61 39.188-250.36 39.188-102.7 0-193.87-15.375-250.36-39.188-18.234-7.6875-32.766-16.219-42.75-25.453-8.9062-8.2969-14.062-17.016-14.062-26.203 0-9.2344 5.1094-17.906 14.062-26.203 9.9375-9.2344 24.469-17.766 42.75-25.453 56.484-23.812 147.61-39.188 250.36-39.188zm-211.13 42.609v96.516c50.719 14.531 126.52 23.859 211.13 23.859 84.609 0 160.4-9.3281 211.13-23.859v-96.516c-50.719-14.531-126.52-23.859-211.13-23.859-84.609 0-160.4 9.3281-211.13 23.859zm434.26 3.7031v89.156c8.3906-2.7656 15.891-5.7188 22.453-8.7656 12.75-5.9531 22.031-12.469 27.562-19.219 4.3594-5.3438 6.4688-10.922 6.4688-16.594s-2.1094-11.25-6.4688-16.594c-5.4844-6.75-14.812-13.312-27.562-19.219-6.5625-3.0469-14.109-6-22.453-8.7656zm-446.26 0c-8.3906 2.7656-15.891 5.7188-22.453 8.7656-12.75 5.9531-22.031 12.469-27.562 19.219-4.3594 5.3438-6.4688 10.922-6.4688 16.594s2.1094 11.25 6.4688 16.594c5.4844 6.75 14.812 13.312 27.562 19.219 6.5625 3.0469 14.109 6 22.453 8.7656z" fill-rule="evenodd"/>
</svg>
