<?xml version="1.0" encoding="UTF-8"?>
<svg width="1200pt" height="1200pt" version="1.1" viewBox="0 0 1200 1200" xmlns="http://www.w3.org/2000/svg">
 <path d="m600 557.58 317.03-317.03c-87.344-77.652-200.15-120.55-317.03-120.55s-229.68 42.898-317.03 120.55z"/>
 <path d="m959.45 282.97-317.03 317.03 317.03 317.03c77.652-87.344 120.55-200.15 120.55-317.03s-42.898-229.68-120.55-317.03z"/>
 <path d="m600 642.42-317.03 317.03c87.344 77.656 200.15 120.55 317.03 120.55s229.68-42.895 317.03-120.55z"/>
 <path d="m557.58 600-317.03-317.03c-77.656 87.344-120.55 200.15-120.55 317.03s42.895 229.68 120.55 317.03z"/>
</svg>
