<?xml version="1.0" encoding="UTF-8"?>
<svg width="1200pt" height="1200pt" version="1.1" viewBox="0 0 1200 1200" xmlns="http://www.w3.org/2000/svg">
 <path d="m600 840c77.199 0 140-62.801 140-140s-62.801-140-140-140-140 62.801-140 140 62.801 140 140 140zm0-240c55.199 0 100 44.801 100 100s-44.801 100-100 100-100-44.801-100-100 44.801-100 100-100z"/>
 <path d="m600 760c33 0 60-27 60-60s-27-60-60-60-60 27-60 60 27 60 60 60zm0-80c11 0 20 9 20 20s-9 20-20 20-20-9-20-20 9-20 20-20z"/>
 <path d="m240 680h60v40c0 11 9 20 20 20h70l-6.8008 201c-35.598 5-63.199 35.398-63.199 72.398v26.602c0 11 9 20 20 20h520c11 0 20-9 20-20v-26.602c0-37-27.602-67.398-63.199-72.398l-6.8008-201h70c11 0 20-9 20-20v-40h60c11 0 20-9 20-20v-80c0-11-9-20-20-20h-60v-40c0-11-9-20-20-20h-78l-1.3984-40h39.398c11 0 20-9 20-20v-80c0-11-9-20-20-20h-21c-10.199-112-104.4-200-219-200s-208.8 88-219 200h-21c-11 0-20 9-20 20v80c0 11 9 20 20 20h39.398l-1.3984 40h-78c-11 0-20 9-20 20v40h-60c-11 0-20 9-20 20v80c0 11 9 20 20 20zm600 333.4v6.6016h-480v-6.6016c0-18.398 15-33.398 33.398-33.398h413.2c18.402 0 33.402 15 33.402 33.398zm100-413.4v40h-40v-40zm-80-60v160h-51.199l-5.3984-160zm-260-360c92.398 0 169 70.199 178.8 160h-357.6c9.8008-89.801 86.402-160 178.8-160zm-220 200h440v40h-440zm380.6 80 2 59.801v0.19922 0.39844l14.199 419.6h-353.6l14-419.6v-0.39844-0.19922l2-59.801zm-420.6 80h56.602l-5.3984 160h-51.203zm-80 60h40v40h-40z"/>
</svg>
