<?xml version="1.0" encoding="UTF-8"?>
<svg width="1200pt" height="1200pt" version="1.1" viewBox="0 0 1200 1200" xmlns="http://www.w3.org/2000/svg">
 <path d="m760 443.6c22 0 40-18 40-40v-67.199c0-11-9-20-20-20-19.602 0-30.199 5-38.602 9.1992-6.6016 3.1992-11 5.1992-21.398 5.1992-10.602 0-15-2-21.398-5.1992-8.6016-4.1992-19.199-9.1992-38.801-9.1992-19.602 0-30.199 5-38.602 9.1992-6.6016 3.1992-11 5.1992-21.398 5.1992-10.398 0-14.801-2-21.199-5.1992-8.6016-4.1992-19.199-9.1992-38.801-9.1992-19.398 0-30 5-38.602 9.1992-6.6016 3.1992-10.801 5.1992-21.199 5.1992-10.602 0-14.801-2-21.398-5.1992-8.3984-4.1992-19-9.1992-38.602-9.1992-11 0-20 9-20 20v67.199c0 22 18 40 40 40h100v81.602c-23 5.6016-40 26.199-40 51v27.398c-11 0-20 9-20 20v240c0 11 9 20 20 20h200c11 0 20-9 20-20v-240c0-11-9-20-20-20v-27.398c0-24.602-17-45.199-40-51v-81.602z"/>
 <path d="m280 643.6h160v200h-160z"/>
 <path d="m760 643.6h160v200h-160z"/>
 <path d="m220 623.6h-80c-11 0-20 9-20 20v200c0 11 9 20 20 20h80c11 0 20-9 20-20v-200c0-11-9-20-20-20z"/>
 <path d="m1060 623.6h-80c-11 0-20 9-20 20v200c0 11 9 20 20 20h80c11 0 20-9 20-20v-200c0-11-9-20-20-20z"/>
</svg>
