<?xml version="1.0" encoding="UTF-8"?>
<svg width="1200pt" height="1200pt" version="1.1" viewBox="0 0 1200 1200" xmlns="http://www.w3.org/2000/svg">
 <path d="m1060 819.4h-60v-18.801c0-11-9-20-20-20h-80c-11 0-20 9-20 20v18.801h-200v-132.8c104.4-33.801 180-131.8 180-247.2 0-143.4-116.6-260-260-260s-260 116.6-260 260c0 115.4 75.602 213.4 180 247.2v132.8h-200v-18.801c0-11-9-20-20-20h-80c-11 0-20 9-20 20v18.801h-60c-11 0-20 9-20 20v120c0 11 9 20 20 20h60v21.199c0 11 9 20 20 20h80c11 0 20-9 20-20v-21.199h560v21.199c0 11 9 20 20 20h80c11 0 20-9 20-20v-21.199h60c11 0 20-9 20-20v-120c0-11-9-20-20-20zm-680-380c0-121.4 98.602-220 220-220s220 98.602 220 220c0 121.4-98.602 220-220 220s-220-98.797-220-220zm180 256.6c13 2 26.398 3.3984 40 3.3984s27-1.3984 40-3.3984v123.4h-80zm-400 243.4v-80h40v80zm120 41.203h-40v-160h40zm40-41.203v-80h560v80zm640 41.203h-40v-160h40zm80-41.203h-40v-80h40z"/>
 <path d="m620 539.4v-43.602c23.199-8.1992 40-30.199 40-56.398 0-26.199-16.801-48-40-56.398v-103.6c0-11-9-20-20-20s-20 9-20 20v103.6c-23.199 8.1992-40 30.199-40 56.398 0 26.199 16.801 48 40 56.398v43.602c0 11 9 20 20 20s20-9 20-20zm-20-120c11 0 20 9 20 20s-9 20-20 20-20-9-20-20 9-20 20-20z"/>
</svg>
