<?xml version="1.0" encoding="UTF-8"?>
<svg width="1200pt" height="1200pt" version="1.1" viewBox="0 0 1200 1200" xmlns="http://www.w3.org/2000/svg">
 <path d="m999 369.2c-5.1992-28-29.602-49.199-59-49.199-26 0-48 16.801-56.398 40h-143.6v-66.398c0-29.602-24-53.602-53.602-53.602h-172.8c-29.598 0-53.598 24-53.598 53.602v66.398h-180v-40c0-6.3984-3-12.398-8.3984-16.199-5.1992-3.8008-12-4.8008-18-2.8008l-120 40c-8 2.8008-13.602 10.398-13.602 19v400c0 8.6016 5.6016 16.199 13.602 19l120 40c2.1992 0.60156 4.1992 1 6.3984 1 4.1992 0 8.1992-1.1992 11.602-3.8008 5.3984-3.8008 8.3984-9.8008 8.3984-16.199v-40h60v80h-20c-33 0-60 27-60 60s27 60 60 60h520c33 0 60-27 60-60s-27-60-60-60h-20v-80h63.602c8.1992 23.199 30.199 40 56.398 40 29.398 0 53.801-21.199 59-49.199l73-54.801c5-3.8008 8-9.6016 8-16v-240c0-6.1992-3-12.199-8-16zm-499-75.598c0-7.6016 6-13.602 13.602-13.602h172.8c7.5977 0 13.598 6 13.598 13.602v63.801l-200-0.003906zm-260 478.6-80-26.602v-371.2l80-26.602zm40-372.2h600v320h-600zm580 500c0 11-9 20-20 20h-520c-11 0-20-9-20-20s9-20 20-20h520c11 0 20 9 20 20zm-80-60h-400v-80h400zm180-100c0 11-9 20-20 20s-20-9-20-20v-360c0-11 9-20 20-20s20 9 20 20zm80-70-40 30v-280l40 30z"/>
 <path d="m360 500h440c11 0 20-9 20-20s-9-20-20-20h-440c-11 0-20 9-20 20s9 20 20 20z"/>
 <path d="m360 580h440c11 0 20-9 20-20s-9-20-20-20h-440c-11 0-20 9-20 20s9 20 20 20z"/>
 <path d="m800 660c11 0 20-9 20-20s-9-20-20-20h-440c-11 0-20 9-20 20s9 20 20 20z"/>
</svg>
