<?xml version="1.0" encoding="UTF-8"?>
<svg width="1200pt" height="1200pt" version="1.1" viewBox="0 0 1200 1200" xmlns="http://www.w3.org/2000/svg">
 <path d="m840 840h-20v-80h22c-1.3984-6.3984-2-13.199-2-20v-360c0-6.8008 0.60156-13.602 2-20h-522v400h20v80h-20c-33 0-60 27-60 60s27 60 60 60h520c33 0 60-27 60-60s-27-60-60-60zm-480-380h440c11 0 20 9 20 20s-9 20-20 20h-440c-11 0-20-9-20-20s9-20 20-20zm0 80h440c11 0 20 9 20 20s-9 20-20 20h-440c-11 0-20-9-20-20s9-20 20-20zm0 80h440c11 0 20 9 20 20s-9 20-20 20h-440c-11 0-20-9-20-20s9-20 20-20z"/>
 <path d="m686.4 240h-172.8c-29.598 0-53.598 24-53.598 53.602v26.398h280v-26.398c0-29.602-24-53.602-53.602-53.602z"/>
 <path d="m999 369.2c-5.1992-27.801-29.801-49.199-59-49.199-33 0-60 27-60 60v360c0 33 27 60 60 60 29.199 0 53.801-21.398 59-49.199l73-54.801c5-3.8008 8-9.8008 8-16v-240c0-6.1992-3-12.199-8-16z"/>
 <path d="m271.6 816.2c5.3984-3.8008 8.3984-9.8008 8.3984-16.199v-480c0-6.3984-3-12.398-8.3984-16.199-5.1992-3.8008-11.801-4.8008-18-2.8008l-120 40c-8 2.8008-13.602 10.398-13.602 19v400c0 8.6016 5.6016 16.199 13.602 19l120 40c2.1992 0.60156 4.1992 1 6.3984 1 4.1992 0 8.1992-1.1992 11.602-3.8008z"/>
</svg>
