<?xml version="1.0" encoding="UTF-8"?>
<svg width="1200pt" height="1200pt" version="1.1" viewBox="0 0 1200 1200" xmlns="http://www.w3.org/2000/svg">
 <path d="m560 960c-49.602 0-90-40.398-90-90 0-82.801-67.199-150-150-150h-70c0-11-9-20-20-20h-80c-11 0-20 9-20 20v120c0 11 9 20 20 20h80c11 0 20-9 20-20h70c16.602 0 30 13.398 30 30 0 115.8 94.199 210 210 210s210-94.199 210-210v-70c11 0 20-9 20-20v-100h100c99.199 0 180-80.801 180-180v-120c0-11-9-20-20-20h-300v-160c0-22 18-40 40-40s40 18 40 40c0 11 9 20 20 20s20-9 20-20c0-44.199-35.801-80-80-80s-80 35.801-80 80v80h-40c-11 0-20 9-20 20s9 20 20 20h40v40h-340c-11 0-20 9-20 20v120c0 99.199 80.801 180 180 180h100v100c0 11 9 20 20 20v70c0 49.602-40.398 90-90 90zm-390-140v-80h40v80zm220-320v-100h640v100c0 77.199-62.801 140-140 140h-360c-77.199 0-140-62.801-140-140zm360 180v80h-80v-80zm-60 190v-70h40v70c0 93.801-76.199 170-170 170s-170-76.199-170-170c0-38.602-31.398-70-70-70h-70v-40h70c60.602 0 110 49.398 110 110 0 71.602 58.398 130 130 130s130-58.398 130-130z"/>
</svg>
