<?xml version="1.0" encoding="UTF-8"?>
<svg width="1200pt" height="1200pt" version="1.1" viewBox="0 0 1200 1200" xmlns="http://www.w3.org/2000/svg">
 <path d="m330.19 300.66h-16.641v-35.344c0-3.3281-2.6719-6-6-6h-9.9375v-35.344c0-3.3281-2.6719-6-6-6h-53.203c-3.3281 0-6 2.6719-6 6v35.344h-9.9375c-3.3281 0-6 2.6719-6 6v35.344h-7.6406c-3.3281 0-6 2.6719-6 6v70.406c0 3.3281 2.6719 6 6 6h121.31c10.875 72.984 50.25 136.6 106.27 178.97v328.6c-18.938 5.7656-35.812 12.562-50.062 20.062-34.172 18.047-53.625 40.922-53.625 64.969v50.531c0 24.047 19.453 46.922 53.625 64.969 48.188 25.453 125.95 42.094 213.61 42.094 87.656 0 165.42-16.641 213.61-42.094 34.172-18.047 53.625-40.922 53.625-64.969v-51.094c-0.28125-23.859-19.688-46.5-53.625-64.406-14.25-7.5469-31.125-14.297-50.062-20.062v-328.6c55.125-41.719 94.125-104.02 105.7-175.6h121.82c3.3281 0 6-2.6719 6-6v-70.406c0-3.3281-2.6719-6-6-6h-7.6406v-38.719c0-3.3281-2.6719-6-6-6h-9.9375v-35.344c0-3.3281-2.6719-6-6-6h-53.203c-3.3281 0-6 2.6719-6 6v35.344h-9.9375c-3.3281 0-6 2.6719-6 6v38.719h-16.172c-18.328-133.97-132.42-237.28-270.28-237.28-136.69 0-250.08 101.58-269.81 233.9zm269.81-169.92c115.55 0 209.34 94.641 209.34 211.13 0 116.53-93.797 211.13-209.34 211.13s-209.34-94.641-209.34-211.13c0-116.53 93.797-211.13 209.34-211.13z" fill-rule="evenodd"/>
</svg>
