<?xml version="1.0" encoding="UTF-8"?>
<svg width="1200pt" height="1200pt" version="1.1" viewBox="0 0 1200 1200" xmlns="http://www.w3.org/2000/svg">
 <path d="m905 357.2-113-113.2c-7.8008-7.8008-20.398-7.8008-28.199 0l-42.398 42.398-14.199-14.199c-7.8008-7.8008-20.398-7.8008-28.199 0l-56.602 56.602c-7.8008 7.8008-7.8008 20.398 0 28.199l14.199 14.199-107.4 107.2-0.003906-158.4h20c11 0 20-9 20-20v-80c0-11-9-20-20-20h-20v-60c0-11-9-20-20-20h-160c-11 0-20 9-20 20v60h-20c-11 0-20 9-20 20v80c0 11 9 20 20 20h20v560h-20c-11 0-20 9-20 20v80c0 11 9 20 20 20h20v60c0 11 9 20 20 20h160c11 0 20-9 20-20v-60h20c11 0 20-9 20-20v-80c0-11-9-20-20-20h-20v-118.6l248.6-248.8 14.199 14.199c4 4 9 5.8008 14.199 5.8008s10.199-2 14.199-5.8008l56.602-56.602c7.8008-7.8008 7.8008-20.398 0-28.199l-14.199-14.199 42.398-42.398c7.6016-7.7969 7.6016-20.398-0.19922-28.199zm-536-197.2h120v40h-120zm-40 80h200v40h-200zm160 800h-120v-40h120zm40-80h-200v-40h200zm-160-80v-560h120v560zm160-175.2v-169.8l135.6-135.4 84.801 84.801zm277-220.4-141.4-141.4 28.199-28.199 141.4 141.4zm28.398-84.797-84.801-84.801 28.199-28.199 84.801 84.801z"/>
</svg>
