<?xml version="1.0" encoding="UTF-8"?>
<svg width="1200pt" height="1200pt" version="1.1" viewBox="0 0 1200 1200" xmlns="http://www.w3.org/2000/svg">
 <path d="m1101 356.91c-12.41 0.023438-24.32 4.918-33.16 13.625-8.8438 8.7109-13.918 20.543-14.129 32.953h-226.41c-83.832 0.10547-164.24 33.277-223.77 92.305-59.527 59.031-93.371 139.16-94.184 222.99-16.781 0.15625-32.227 9.1914-40.59 23.742-8.3594 14.551-8.3867 32.445-0.070312 47.023 8.3164 14.574 23.734 23.656 40.516 23.863v30.805c0 33.176-17.699 63.836-46.434 80.422-28.734 16.59-64.133 16.59-92.867 0-28.734-16.586-46.434-47.246-46.434-80.422v-280.73c12.227-0.26172 23.887-5.1992 32.582-13.801 8.8984-8.832 13.898-20.855 13.887-33.391-0.023438-12.402-4.8984-24.301-13.582-33.156-8.6836-8.8516-20.488-13.957-32.887-14.223v-336.75c16.82-0.29688 32.219-9.5 40.449-24.172 8.2305-14.672 8.0547-32.609-0.46094-47.121-8.5156-14.508-24.09-23.406-40.914-23.375h-223.62c-16.848-0.058594-32.457 8.8438-40.988 23.371-8.5273 14.527-8.6953 32.496-0.43359 47.18 8.2617 14.684 23.703 23.871 40.547 24.125v336.72c-12.246 0.16797-23.941 5.1289-32.57 13.82-8.8164 8.7969-13.809 20.719-13.895 33.172-0.082032 12.457 4.75 24.445 13.449 33.359 8.6992 8.9141 20.562 14.039 33.016 14.262v280.89c0.20703 84.258 33.82 164.99 93.473 224.5 59.648 59.508 140.47 92.926 224.73 92.926 84.258 0 165.07-33.418 224.73-92.926 59.652-59.508 93.266-140.24 93.473-224.5v-30.988c12.301-0.14844 24.059-5.1094 32.75-13.816 8.8125-8.7852 13.809-20.691 13.902-33.133 0.09375-12.441-4.7227-24.422-13.402-33.34-8.6797-8.9141-20.523-14.051-32.965-14.293 0.62109-24.113 10.656-47.023 27.961-63.828 17.301-16.809 40.496-26.172 64.613-26.086h226.42c0.33203 16.801 9.5508 32.168 24.219 40.371s32.586 8.0156 47.078-0.49219c14.492-8.5117 23.383-24.066 23.367-40.871v-223.62c-0.015625-12.566-5.0117-24.609-13.895-33.492-8.8828-8.8828-20.93-13.879-33.492-13.895zm-1031-272.03c0.007813-7.6719 3.0586-15.027 8.4844-20.453 5.4258-5.4258 12.785-8.4766 20.457-8.4844h223.62c10.34 0 19.891 5.5156 25.059 14.469 5.1719 8.9531 5.1719 19.984 0 28.938-5.168 8.9531-14.719 14.469-25.059 14.469h-223.62c-7.6719-0.007812-15.027-3.0586-20.453-8.4844-5.4297-5.4258-8.4805-12.781-8.4883-20.453zm235.04 47.395v336.54h-188.53v-336.54zm-206.16 412.88c-7.6484-0.011719-14.984-3.0547-20.395-8.4648-5.4062-5.4102-8.4492-12.742-8.457-20.395 0.027343-7.7383 3.1133-15.148 8.582-20.625 5.3516-5.4102 12.66-8.4375 20.27-8.4023h223.59c7.6992 0.007813 15.078 3.0703 20.523 8.5117 5.4453 5.4453 8.5078 12.824 8.5195 20.523-0.003907 7.6445-3.0586 14.977-8.4922 20.355-5.4648 5.4297-12.848 8.4805-20.551 8.5h-223.59zm617.12 299.25c0 79.5-31.582 155.74-87.797 211.96s-132.46 87.797-211.96 87.797-155.75-31.582-211.96-87.797-87.797-132.46-87.797-211.96v-280.81h188.54v280.62c-0.12109 29.598 11.551 58.027 32.441 79 20.887 20.973 49.266 32.766 78.867 32.766 29.602 0 57.98-11.793 78.867-32.766 20.891-20.973 32.562-49.402 32.441-79v-30.723h188.36zm46.656-78.387c-0.015625 7.6992-3.0742 15.086-8.5117 20.543-5.4297 5.4648-12.824 8.5234-20.531 8.4922h-223.58c-7.6992-0.003906-15.082-3.0664-20.523-8.5117-5.4453-5.4453-8.5039-12.824-8.5117-20.523 0.042969-7.6719 3.1211-15.012 8.5625-20.418 5.4414-5.4102 12.801-8.4414 20.473-8.4375h223.59c7.6719-0.015625 15.039 3.0156 20.484 8.4219 5.4453 5.4102 8.5195 12.754 8.5586 20.43zm290.96-155.54h-226.31c-29-0.035156-56.867 11.262-77.652 31.484-20.785 20.223-32.844 47.77-33.605 76.758h-188.38c0.84375-78.945 32.773-154.38 88.863-209.93 56.094-55.559 131.82-86.766 210.77-86.855h226.31zm76.312 17.449c0.0625 7.7148-2.9609 15.133-8.3945 20.613-5.4336 5.4766-12.828 8.5586-20.543 8.5586s-15.113-3.082-20.547-8.5586c-5.4336-5.4805-8.4531-12.898-8.3906-20.613v-223.63c-0.0625-7.7188 2.957-15.137 8.3906-20.613 5.4336-5.4805 12.832-8.5586 20.547-8.5586s15.109 3.0781 20.543 8.5586c5.4336 5.4766 8.457 12.895 8.3945 20.613z"/>
</svg>
