<?xml version="1.0" encoding="UTF-8"?>
<svg width="1200pt" height="1200pt" version="1.1" viewBox="0 0 1200 1200" xmlns="http://www.w3.org/2000/svg">
 <path d="m1060 560h-80c-11 0-20 9-20 20v20h-180c-37.602 0-72.801 14.602-98.801 41-26.598 26.199-41.199 61.398-41.199 99 0 37.199-14.602 72.398-40.801 99-26.598 26.398-62 41-99.199 41-77.199 0-140-62.801-140-140v-500h20c11 0 20-9 20-20v-80c0-11-9-20-20-20h-240c-11 0-20 9-20 20v80c0 11 9 20 20 20h20v540c0 165.4 134.6 300 300 300h80c80 0 155.2-31.199 212.2-87.801 51.801-52 82.398-119.6 87.199-192.2h120.6v20c0 11 9 20 20 20h80c11 0 20-9 20-20v-240c0-11-9-20-20-20zm-900-400h200v40h-200zm660 600c-11 0-20 9-20 20 0 69.199-27 134.6-76.199 183.8s-114.6 76.199-183.8 76.199h-80c-143.4 0-260-116.6-260-260v-540h120v500c0 99.199 80.801 180 180 180 48 0 93.199-18.602 127.4-52.801 34-34 52.602-79.199 52.602-127.2 0-26.801 10.398-51.801 29.398-70.801 18.801-18.801 43.801-29.199 70.602-29.199h180v120zm220 40h-40v-200h40z"/>
</svg>
