<?xml version="1.0" encoding="UTF-8"?>
<svg width="1200pt" height="1200pt" version="1.1" viewBox="0 0 1200 1200" xmlns="http://www.w3.org/2000/svg">
 <path d="m690.56 688.78v46.641c0 69.656-28.5 132.94-74.391 178.82-45.891 45.891-109.22 74.391-178.82 74.391-69.656 0-132.94-28.5-178.87-74.391-45.891-45.844-74.391-109.22-74.391-178.82l0.046874-379.36c-8.0156-1.9688-15.188-6.1406-20.906-11.812l-0.09375-0.09375c-8.0625-8.1562-13.125-19.312-13.125-31.594v-56.438c0-12.281 5.0156-23.438 13.125-31.547l0.09375-0.09375c8.1562-8.1094 19.312-13.125 31.594-13.125h163.5c12.328 0 23.531 5.0625 31.594 13.125 8.1094 8.1094 13.125 19.312 13.125 31.594v56.438c0 12.328-5.0625 23.531-13.125 31.641-5.7188 5.7188-12.938 9.8438-21 11.812v379.36c0 18.844 7.6875 35.906 20.062 48.281l0.09375 0.14062c12.375 12.375 29.484 20.062 48.281 20.062 18.844 0 35.906-7.6875 48.281-20.062l0.046876-0.046875c12.375-12.375 20.062-29.484 20.062-48.281v-46.688c-7.6875-1.875-14.625-5.8125-20.25-11.156l-0.75-0.65625c-8.1094-8.1094-13.125-19.312-13.125-31.641v-56.438c0-12.281 5.0156-23.438 13.125-31.547l0.09375-0.09375c5.3906-5.3438 12.094-9.375 19.594-11.484v-47.016c0-69.656 28.5-132.94 74.344-178.87 45.891-45.891 109.22-74.344 178.87-74.344h147.74c1.9688-8.0156 6.1406-15.188 11.812-20.906l0.09375-0.09375c8.1562-8.1094 19.312-13.125 31.594-13.125h56.438c12.281 0 23.438 5.0156 31.547 13.125l0.09375 0.09375c8.0156 8.1094 13.031 19.312 13.031 31.547v163.5c0 12.281-5.0156 23.438-13.125 31.547l-0.09375 0.09375c-8.1094 8.1094-19.312 13.125-31.594 13.125h-56.438c-12.281 0-23.438-5.0156-31.547-13.125l-0.09375-0.09375c-5.7188-5.7188-9.8438-12.891-11.859-20.906l-147.66 0.046875c-18.844 0-35.906 7.6875-48.281 20.062v0.046875c-12.375 12.375-20.109 29.531-20.109 48.281v46.312c8.5781 1.875 16.266 6.1875 22.266 12.188l0.046874 0.046875c8.1094 8.1094 13.125 19.312 13.125 31.594v56.438c0 12.328-5.0625 23.531-13.125 31.641-5.6719 5.6719-12.891 9.8438-20.953 11.859zm142.08 299.16c15.797 0 30.141-6.4219 40.5-16.781l0.046875-0.046875c10.359-10.406 16.781-24.703 16.781-40.5 0-14.25-5.3906-30.188-13.125-45.562-10.031-19.969-24.188-39.281-34.922-52.125-0.46875-0.5625-0.98438-1.125-1.5938-1.5938-5.0625-4.2188-12.656-3.5625-16.875 1.5-10.734 12.844-24.938 32.156-35.016 52.219-7.7344 15.375-13.125 31.266-13.125 45.562 0 15.797 6.4219 30.094 16.781 40.5l0.046875 0.046875c10.359 10.312 24.703 16.781 40.5 16.781zm-23.578-33.75c6 6 14.344 9.75 23.578 9.75s17.578-3.75 23.625-9.75c6-6 9.75-14.344 9.75-23.625 0-10.219-4.3125-22.5-10.5-34.781-6.4688-12.844-14.906-25.594-22.828-36.094-7.875 10.5-16.359 23.156-22.828 36.094-6.1875 12.281-10.5 24.562-10.5 34.781-0.046875 9.2344 3.6562 17.578 9.7031 23.625zm23.578-239.72c15.422 0 29.484-6.1406 39.844-16.125l0.75-0.65625c10.359-10.406 16.781-24.703 16.781-40.547 0-14.25-5.3906-30.188-13.125-45.562-10.031-19.969-24.188-39.281-34.922-52.125-0.46875-0.5625-0.98438-1.125-1.5938-1.5938-5.0625-4.2188-12.656-3.5625-16.875 1.5-10.734 12.844-24.938 32.156-35.016 52.219-7.7344 15.375-13.125 31.266-13.125 45.562 0 15.844 6.4219 30.188 16.828 40.5 10.312 10.359 24.656 16.828 40.453 16.828zm-23.578-33.75c6 6 14.344 9.75 23.578 9.75 9 0 17.109-3.5156 23.062-9.2344l0.51562-0.5625c6-6 9.75-14.344 9.75-23.578 0-10.219-4.3125-22.5-10.5-34.781-6.4688-12.844-14.906-25.594-22.828-36.094-7.875 10.5-16.359 23.203-22.828 36.094-6.1875 12.281-10.5 24.562-10.5 34.781 0 9.1875 3.75 17.531 9.75 23.578zm165.32 170.44c15.844 0 30.188-6.4219 40.5-16.828 10.406-10.406 16.828-24.703 16.828-40.5 0-14.25-5.3906-30.188-13.125-45.562-10.078-19.969-24.188-39.281-34.922-52.125-0.46875-0.5625-1.0312-1.125-1.5938-1.5938-5.0625-4.2188-12.656-3.5625-16.875 1.5-10.734 12.844-24.938 32.156-35.016 52.219-7.7344 15.375-13.125 31.312-13.125 45.562 0 15.844 6.4219 30.188 16.781 40.547 10.406 10.406 24.75 16.781 40.547 16.781zm-23.578-33.75c6.0469 6 14.344 9.75 23.578 9.75 9.1875 0 17.531-3.75 23.578-9.75h0.046875c6-6 9.75-14.344 9.75-23.578 0-10.219-4.3125-22.5-10.5-34.781-6.4688-12.844-14.953-25.547-22.828-36.047-7.9219 10.5-16.359 23.156-22.828 36.047-6.1875 12.281-10.5 24.562-10.5 34.781-0.046875 9.2344 3.7031 17.578 9.7031 23.578zm-46.781-547.87h-146.44c-63 0-120.32 25.781-161.9 67.312-41.531 41.531-67.312 98.859-67.312 161.9v45.375h136.82v-45.375c0-25.406 10.406-48.562 27.141-65.25 16.781-16.734 39.891-27.141 65.25-27.141h146.44zm24 141.66c1.5 1.9688 2.3438 4.4531 2.3438 7.125 0 2.2969-0.65625 4.4062-1.7344 6.2344 0.89062 3.75 2.8125 7.125 5.4844 9.75l0.046875 0.046875c3.75 3.75 8.9062 6.0938 14.672 6.0938h56.438c5.7188 0 10.922-2.3438 14.625-6.0938l0.046875-0.046875c3.7031-3.7031 6.0469-8.9062 6.0469-14.625v-163.55c0-5.7188-2.3438-10.922-6.0469-14.625l-0.046875-0.046875c-3.75-3.75-8.9062-6.0938-14.625-6.0938h-56.438c-5.7188 0-10.922 2.3438-14.672 6.0938l-0.046875 0.046875c-3.75 3.75-6.0938 8.9062-6.0938 14.625zm-398.29 278.81v45.375c0 25.312-10.406 48.422-27.094 65.203l-0.09375 0.09375c-16.781 16.734-39.844 27.141-65.203 27.141s-48.469-10.406-65.203-27.094l-0.046875-0.09375c-16.734-16.781-27.141-39.844-27.141-65.25l-0.046875-378.05h-136.78v378.1c0 63 25.781 120.32 67.359 161.9 41.531 41.531 98.859 67.312 161.9 67.312 63 0 120.32-25.781 161.86-67.312s67.359-98.859 67.359-161.9v-45.375h-136.87zm-13.359-24h163.55c5.7188 0 10.875-2.3438 14.672-6.0938 3.75-3.75 6.0938-8.9531 6.0938-14.672v-56.438c0-5.7188-2.3438-10.922-6.0938-14.672s-8.9531-6.0938-14.672-6.0938h-2.7188l-160.82 0.046875c-5.7188 0-10.922 2.3438-14.672 6.0938l-0.046875 0.046875c-3.75 3.75-6.0469 8.9062-6.0469 14.625v56.438c0 5.7188 2.3438 10.875 6.0938 14.672l0.46875 0.46875c3.75 3.4688 8.7188 5.5781 14.203 5.5781zm-320.26-332.68h162.19c5.7188 0 10.875-2.3438 14.625-6.0938s6.0938-8.9531 6.0938-14.672v-56.438c0-5.7188-2.3438-10.875-6.0938-14.625s-8.9531-6.0938-14.625-6.0938h-163.55c-5.7188 0-10.922 2.3438-14.625 6.0938h-0.046875c-3.75 3.75-6.0938 8.9062-6.0938 14.625v56.438c0 5.7188 2.3438 10.922 6.0938 14.672l0.046875 0.046875c3.75 3.75 8.9062 6.0469 14.625 6.0469z" fill-rule="evenodd"/>
</svg>
