<?xml version="1.0" encoding="UTF-8"?>
<svg width="1200pt" height="1200pt" version="1.1" viewBox="0 0 1200 1200" xmlns="http://www.w3.org/2000/svg">
 <path d="m510.74 296.34 74.203 74.203v-241.45c0-11.062 8.0156-22.078 23.438-31.266 31.172-18.609 93.938-31.594 166.26-31.594 72.328 0 135.1 12.984 166.26 31.594 15.281 9.1406 23.297 20.016 23.438 30.984v941.16c0 11.062-8.0156 22.078-23.438 31.266-31.172 18.609-93.938 31.594-166.26 31.594-72.328 0-135.1-12.984-166.26-31.594-15.422-9.1875-23.438-20.203-23.438-31.266v-162.94l-342.47-342.47c-7.8281-7.8281-9.9375-21.281-5.5312-38.672 8.9062-35.203 44.109-88.734 95.25-139.87 51.141-51.141 104.67-86.344 139.87-95.25 17.438-4.4062 30.844-2.2969 38.672 5.5312zm-170.06 98.203c42.328-42.328 86.203-73.594 119.3-87.047 10.453-4.2656 19.734-6.7031 27.422-6.9844 6.3281-0.23438 11.484 0.9375 14.859 4.3125s4.5469 8.5312 4.3125 14.859c-0.28125 7.7344-2.7188 17.016-6.9844 27.422-13.453 33.094-44.719 76.969-87.047 119.3-42.328 42.328-86.203 73.594-119.3 87.047-10.453 4.2656-19.734 6.7031-27.422 6.9844-6.3281 0.23438-11.484-0.9375-14.859-4.3125s-4.5469-8.5312-4.3125-14.859c0.28125-7.7344 2.7188-17.016 6.9844-27.422 13.453-33.094 44.719-76.969 87.047-119.3zm-62.016 95.719c-4.9219 7.875-8.7656 15.047-11.391 21.234-3.0938 7.3594-4.5 13.594-4.3125 18.234 0.14062 4.4531 1.6406 7.875 4.0781 10.312s5.8594 3.9375 10.312 4.0781c4.6875 0.1875 10.875-1.2188 18.281-4.3125 6.1875-2.625 13.359-6.4688 21.234-11.391l-38.203-38.203zm147.52-151.03c-22.359 15.328-49.125 37.781-76.078 64.734-26.953 26.953-49.406 53.719-64.734 76.078l41.719 41.719c22.359-15.328 49.125-37.781 76.078-64.734 26.953-26.953 49.406-53.719 64.734-76.078zm10.219-6.7031 38.203 38.203c4.9219-7.875 8.7656-15.047 11.391-21.234 3.0938-7.3594 4.5-13.594 4.3125-18.281-0.14063-4.4531-1.6406-7.875-4.0781-10.312s-5.8594-3.9375-10.312-4.0781c-4.6875-0.1875-10.875 1.2188-18.281 4.3125-6.1875 2.625-13.359 6.4688-21.234 11.391zm338.26-254.26c59.859 0 112.97 8.9062 145.92 22.828 10.406 4.4062 18.656 9.1875 24.328 14.484 4.6406 4.3125 7.4531 8.7656 7.4531 13.547s-2.8125 9.2344-7.4531 13.547c-5.6719 5.25-13.969 10.078-24.328 14.484-32.906 13.875-86.016 22.828-145.92 22.828-59.859 0-112.97-8.9062-145.92-22.828-10.406-4.3594-18.656-9.1875-24.328-14.484-4.6406-4.3125-7.4531-8.7656-7.4531-13.547s2.8125-9.2344 7.4531-13.547c5.6719-5.25 13.969-10.078 24.328-14.484 32.906-13.875 86.016-22.828 145.92-22.828zm-99.562 21.328v59.016c26.625 4.9688 61.453 8.0156 99.562 8.0156s72.938-3.0469 99.562-8.0156v-59.016c-26.625-4.9688-61.453-8.0156-99.562-8.0156s-72.938 3.0469-99.562 8.0156zm211.13 2.4844v54.047c9.0469-2.1094 16.828-4.4531 23.062-6.9844 7.4062-3 12.797-6.4219 15.984-9.8438 3.0469-3.2812 4.4062-6.75 4.4062-10.172 0-3.4688-1.3594-6.9375-4.4062-10.172-3.1875-3.4219-8.5781-6.8438-15.984-9.8438-6.2344-2.5312-14.016-4.875-23.062-6.9844zm-223.13 0c-9.0469 2.1094-16.828 4.4531-23.062 6.9844-7.4062 3-12.797 6.4219-15.984 9.8438-3.0469 3.2812-4.4062 6.75-4.4062 10.172 0 3.4688 1.3594 6.9375 4.4062 10.172 3.1875 3.4219 8.5781 6.8438 15.984 9.8438 6.2344 2.5312 14.016 4.875 23.062 6.9844v-54.047z" fill-rule="evenodd"/>
</svg>
