<?xml version="1.0" encoding="UTF-8"?>
<svg width="1200pt" height="1200pt" version="1.1" viewBox="0 0 1200 1200" xmlns="http://www.w3.org/2000/svg">
 <path d="m363.74 403.55v-260.21c0-13.406 9.8906-26.625 28.594-37.781 38.859-23.156 117.05-39.281 207.19-39.281 90.141 0 168.32 16.125 207.19 39.281 18.703 11.156 28.594 24.375 28.594 37.781v260.21c41.109 10.219 75.188 23.062 99.609 37.641 29.016 17.297 44.719 37.5 44.719 58.312v511.6c0 20.812-15.703 41.016-44.719 58.312-62.859 37.5-189.47 63.422-335.39 63.422-145.87 0-272.48-25.922-335.39-63.422-29.016-17.297-44.719-37.5-44.719-58.312v-511.6c0-20.812 15.703-41.016 44.719-58.312 24.422-14.578 58.547-27.422 99.609-37.641zm235.74-325.31c75.141 0 141.79 11.203 183.1 28.641 13.172 5.5781 23.719 11.719 30.891 18.375 6.1875 5.7188 9.7969 11.719 9.7969 18.047 0 6.375-3.6562 12.328-9.7969 18.047-7.1719 6.6562-17.719 12.844-30.891 18.375-41.297 17.438-107.95 28.641-183.1 28.641s-141.79-11.203-183.1-28.641c-13.172-5.5781-23.719-11.719-30.891-18.375-6.1875-5.7188-9.7969-11.719-9.7969-18.047 0-6.375 3.6562-12.328 9.7969-18.047 7.1719-6.6562 17.719-12.844 30.891-18.375 41.297-17.438 107.95-28.641 183.1-28.641zm-149.11 28.359v73.453c36.375 10.078 89.672 16.5 149.11 16.5 59.391 0 112.73-6.4219 149.11-16.5v-73.453c-36.375-10.078-89.672-16.5-149.11-16.5-59.441 0-112.73 6.4219-149.11 16.5zm-12 3.6562c-5.5781 1.875-10.641 3.8438-15.047 5.9531-9.375 4.3594-16.219 9.2344-20.297 14.203-3.375 4.1719-5.0156 8.5312-5.0156 12.938s1.6406 8.7656 5.0156 12.938c4.0312 4.9688 10.875 9.8438 20.297 14.203 4.4531 2.0625 9.4688 4.0312 15.047 5.9531zm322.18 0v66.141c5.5781-1.875 10.641-3.8906 15.047-5.9531 9.375-4.3594 16.219-9.2344 20.297-14.203 3.375-4.1719 5.0156-8.5312 5.0156-12.938s-1.6406-8.7656-5.0156-12.938c-4.0312-4.9688-10.922-9.8438-20.297-14.203-4.4531-2.0625-9.4688-4.0312-15.047-5.9531z" fill-rule="evenodd"/>
</svg>
