<?xml version="1.0" encoding="UTF-8"?>
<svg width="1200pt" height="1200pt" version="1.1" viewBox="0 0 1200 1200" xmlns="http://www.w3.org/2000/svg">
 <path d="m422.95 446.39v-283.03c0-16.734 12.469-33.094 35.812-47.016 49.641-29.625 149.58-50.109 264.71-50.109s215.06 20.484 264.71 50.109c23.344 13.922 35.812 30.281 35.812 47.016v872.29c0 16.734-12.469 33.094-35.812 47.016-49.641 29.625-149.58 50.109-264.71 50.109s-215.06-20.531-264.71-50.109c-23.344-13.922-35.812-30.281-35.812-47.016v-283.03h-268.74c-9.0938-0.1875-18.141-6.7031-25.688-19.359-14.953-25.078-25.453-75.562-25.453-133.78 0-58.219 10.5-108.7 25.453-133.78 7.5469-12.656 16.594-19.172 25.688-19.359h268.74zm-243 31.547c0.28125 0.28125 0.60938 0.60938 0.84375 0.9375 1.5469 2.0625 2.9531 5.1094 4.3125 9 7.4062 20.906 12.375 63.094 12.375 111.66s-4.9688 90.75-12.375 111.66c-1.3594 3.8906-2.7656 6.9375-4.3125 9-0.23438 0.28125-0.5625 0.65625-0.84375 0.9375-0.28125-0.28125-0.60938-0.60938-0.84375-0.9375-1.5469-2.0625-2.9531-5.1094-4.3125-9-7.4062-20.906-12.375-63.094-12.375-111.66s4.9688-90.75 12.375-111.66c1.3594-3.8906 2.7656-6.9375 4.3125-9 0.23438-0.32812 0.5625-0.65625 0.84375-0.9375zm832.08-314.58c0 5.3906-1.2656 12.562-13.125 24.375-9 9-22.969 16.641-40.078 23.859-53.062 22.406-138.74 36.844-235.36 36.844-96.562 0-182.26-14.438-235.36-36.844-17.109-7.2188-30.75-15.234-40.078-23.859-9.3281-8.6719-13.125-15.844-13.125-24.375 0-8.5781 4.7812-16.688 13.125-24.375 9.3281-8.6719 22.969-16.688 40.078-23.906 53.062-22.406 138.74-36.844 235.36-36.844 96.562 0 182.26 14.438 235.36 36.844 17.109 7.2188 30.75 15.234 40.078 23.906 8.2969 7.7344 13.125 15.797 13.125 24.375zm-487.45-45.984v91.969c47.906 13.641 119.25 22.406 198.94 22.406 79.641 0 151.03-8.7656 198.94-22.406v-91.969c-47.906-13.641-119.25-22.406-198.94-22.406-79.641 0-151.03 8.7656-198.94 22.406zm409.82 3.7031v84.609c7.8281-2.5781 14.859-5.3438 21-8.2031 12.094-5.625 20.906-11.812 26.109-18.234 4.1719-5.1094 6.1875-10.453 6.1875-15.844s-2.0156-10.734-6.1875-15.844c-5.2031-6.4219-14.062-12.609-26.109-18.234-6.1406-2.8594-13.172-5.625-21-8.2031zm-421.82 0c-7.8281 2.5781-14.859 5.3438-21 8.2031-12.094 5.625-20.906 11.859-26.109 18.234-4.1719 5.1094-6.1875 10.453-6.1875 15.844s2.0156 10.734 6.1875 15.844c5.2031 6.4219 14.062 12.609 26.109 18.234 6.1406 2.8594 13.172 5.625 21 8.2031v-84.609z" fill-rule="evenodd"/>
</svg>
