<?xml version="1.0" encoding="UTF-8"?>
<svg width="1200pt" height="1200pt" version="1.1" viewBox="0 0 1200 1200" xmlns="http://www.w3.org/2000/svg">
 <path d="m481.8 760h120v-20h160c33 0 60-27 60-60s-27-60-60-60h-280v-220c0-88.199 71.801-160 160-160h20c77.398 0 143.8 55.398 157.6 131.6 5 28 29.602 48.398 58.602 48.398 17.801 0 34.801-8 46.199-21.602 11.398-13.602 16.199-31.398 13-48.801-24.203-133-140-229.6-275.4-229.6h-20c-154.4 0-280 125.6-280 280v360z"/>
 <path d="m321.8 1080h320c33 0 60-27 60-60s-27-60-60-60h-7.8008l65.398-131c3.1992-6.1992 2.8008-13.602-0.80078-19.602-3.6016-5.8008-10-9.3984-17-9.3984h-360c-11 0-20 9-20 20v143.8c-23.199 8.3984-40 30.398-40 56.199 0.20312 33 27.203 60 60.203 60z"/>
</svg>
