<?xml version="1.0" encoding="UTF-8"?>
<svg width="1200pt" height="1200pt" version="1.1" viewBox="0 0 1200 1200" xmlns="http://www.w3.org/2000/svg">
 <path d="m831.4 590c-8.1992 0-16.199-1-23.801-3.1992l11 319.2c1 36 30.199 64 66.199 64h70.602c35.801 0 65-28 66-63.801l11-319.6c-7.6016 2.1992-15.602 3.3984-24 3.3984z"/>
 <path d="m701.4 906.2 11-319.4c-7.6016 2.1992-15.602 3.1992-23.801 3.1992h-177.2c-8.1992 0-16.199-1-23.801-3.1992l11 319.2c1 36 30.199 64 66.199 64h70.602c35.801 0 65-28 66-63.801z"/>
 <path d="m191.6 590c-8.3984 0-16.398-1.1992-24-3.3984l11 319.4c1 36 30.199 64 66.199 64h70.602c35.801 0 65-28 66-63.801l11-319.4c-7.6016 2.1992-15.602 3.1992-23.801 3.1992z"/>
 <path d="m1060 498.6v-48.602c0-11-9-20-20-20h-240c-11.199 0-20 9-20 20v48.602c0 28.398 23 51.398 51.398 51.398h177c28.402 0 51.602-23 51.602-51.398z"/>
 <path d="m688.6 550c28.398 0 51.398-23 51.398-51.398v-48.602c0-11-9-20-20-20h-240c-11 0-20 9-20 20v48.602c0 28.398 23 51.398 51.398 51.398z"/>
 <path d="m420 498.6v-48.602c0-11-8.8008-20-20-20h-240c-11 0-20 9-20 20v48.602c0 28.398 23.199 51.398 51.602 51.398h177c28.398 0 51.398-23 51.398-51.398z"/>
 <path d="m1060 230h-920c-11 0-20 9-20 20v120c0 11 9 20 20 20h920c11 0 20-9 20-20v-120c0-11-9-20-20-20z"/>
</svg>
