<?xml version="1.0" encoding="UTF-8"?>
<svg width="1200pt" height="1200pt" version="1.1" viewBox="0 0 1200 1200" xmlns="http://www.w3.org/2000/svg">
 <path d="m321.8 1080h320c33 0 60-27 60-60s-27-60-60-60h-7.6016l65.602-131c3-6.1992 2.8008-13.602-0.80078-19.398-3.6016-5.8008-10-9.3984-17-9.3984h-80v-60h160c33 0 60-27 60-60s-27-60-60-60h-280v-220.2c0-88.199 71.801-160 160-160h20c77.398 0 143.8 55.398 157.6 131.6 5 28 29.801 48.398 58.602 48.398 18 0 34.801-8 46.199-21.602 11.398-13.602 16.199-31.398 13-48.801-24.402-133-140.2-229.6-275.6-229.6h-20c-154.4 0-280 125.6-280 280v400h-40c-11 0-20 9-20 20v143.6c-23.199 8.1992-40 30.199-40 56.398 0 33 27 60 60 60zm440-420c11 0 20 9 20 20s-9 20-20 20h-180c-11 0-20 9-20 20v80h-80v-140zm-360-260c0-132.4 107.6-240 240-240h20c116 0 215.4 82.801 236.2 196.8 1.3984 7.8008-2 13.199-4.1992 16-4 4.5977-9.8008 7.1992-15.801 7.1992-9.6016 0-17.602-6.6016-19.398-15.602-17.199-95.199-100-164.4-196.8-164.4h-20c-110.2 0-200 89.801-200 200v400h-40zm247.6 440-60 120h-247.6v-120zm-327.6 160h320c11 0 20 9 20 20s-9 20-20 20h-320c-11 0-20-9-20-20s9-20 20-20z"/>
</svg>
