<?xml version="1.0" encoding="UTF-8"?>
<svg width="1200pt" height="1200pt" version="1.1" viewBox="0 0 1200 1200" xmlns="http://www.w3.org/2000/svg">
 <path d="m1060 230h-920c-11 0-20 9-20 20v120c0 11 9 20 20 20v28c0 17.801 9.1992 33.602 23 42.801l15.602 445.2c1.1992 35.801 30.199 64 66.199 64h70.602c36 0 65-28 66.199-64l15.398-445.2c13.801-9.1992 23-24.801 23-42.801v-28h40v28c0 18 9.1992 33.602 23.199 42.801l15.398 445.2c1.1992 35.801 30.199 64 66.199 64h70.602c36 0 65-28 66.199-64l15.398-445.2c14-9.1992 23.199-25 23.199-42.801v-28h40v28c0 18 9.1992 33.801 23.199 43l15.398 445.2c1.1992 35.801 30.199 64 66.199 64h70.602c36 0 65-28 66.199-64l15.398-445.2c13.609-9.3984 22.809-25.199 22.809-43v-28c11 0 20-9 20-20v-120c0-11-9-20-20-20zm-20 40v79.398h-240c-1 0-1.8008 0.39844-2.8008 0.60156h-74.199c-1-0.19922-1.8008-0.60156-2.8008-0.60156h-240.2c-1 0-1.8008 0.39844-2.8008 0.60156h-74.199c-1-0.19922-1.8008-0.60156-2.8008-0.60156h-240.2v-79.398zm-20 148c0 6.3984-5.1992 11.398-11.398 11.398h-177.2c-6.3984 0-11.398-5.1992-11.398-11.398v-28h200zm-704.6 512h-70.602c-14.199 0-25.801-11-26.199-25.199l-15-435.4h153.2l-15 435.4c-0.79688 14.199-12.195 25.199-26.398 25.199zm64.602-512c0 6.3984-5.1992 11.398-11.398 11.398h-177c-6.4023 0-11.602-5.1992-11.602-11.398v-28h200zm255.4 512h-70.602c-14.199 0-25.801-11-26.199-25.199l-15-435.4h153.2l-15 435.4c-0.79688 14.199-12.195 25.199-26.398 25.199zm64.602-512c0 6.3984-5.1992 11.398-11.398 11.398h-177.2c-6.3984 0-11.398-5.1992-11.398-11.398v-28h200zm255.4 512h-70.602c-14.199 0-25.801-11-26.199-25.199l-15-435.4h153.2l-15 435.4c-0.79688 14.199-12.195 25.199-26.398 25.199z"/>
</svg>
