<?xml version="1.0" encoding="UTF-8"?>
<svg width="1200pt" height="1200pt" version="1.1" viewBox="0 0 1200 1200" xmlns="http://www.w3.org/2000/svg">
 <path d="m1068.1 409.36h-215.89c-6.6328 0-12 5.3711-12 12v32.309h-383.34v-93.672h32.309c6.6328 0 12-5.3711 12-12v-215.89c0-6.6289-5.3672-12-12-12h-357.07c-6.6328 0-12 5.3711-12 12v215.89c0 6.6289 5.3672 12 12 12h32.32v480h-32.309c-6.6328 0-12 5.3711-12 12v215.89c0 6.6289 5.3672 12 12 12h357.06c6.6328 0 12-5.3711 12-12v-215.89c0-6.6289-5.3672-12-12-12h-32.309v-93.879h383.34v32.309c0 6.6289 5.3672 12 12 12h215.89c6.6328 0 12-5.3711 12-12v-357.07c0-6.625-5.3672-12-12-12zm-12 178.53h-191.89v-65.262h191.89zm-191.89 24h191.89v65.266h-191.89zm191.89-178.53v65.266l-191.89 0.003906v-65.266zm-578.93-97.363h-31.293c-0.35156-0.03125-0.65625-0.20312-1.0156-0.20312-0.35938 0-0.66406 0.17188-1.0156 0.20312h-31.949v-191.89h65.273zm-243.81 0v-191.89h65.273v191.89zm89.273-191.89h65.262v191.89h-65.262zm-178.54 0h65.262v191.89h-31.926c-0.35156-0.03125-0.65625-0.20312-1.0156-0.20312s-0.66406 0.17188-1.0156 0.20312h-31.305zm0.011719 719.89h65.262v191.89h-65.262zm243.8 0v191.89h-65.262v-191.89zm-89.262 191.89h-65.273v-191.89h65.273zm178.52 0h-65.262v-191.89h65.262zm-32.309-333.77c-6.6328 0-12 5.3711-12 12v105.88h-244.44v-480h244.44v105.67c0 6.6289 5.3672 12 12 12h395.34v244.45zm419.34 44.309v-65.266h191.89v65.266z"/>
</svg>
