<?xml version="1.0" encoding="UTF-8"?>
<svg width="1200pt" height="1200pt" version="1.1" viewBox="0 0 1200 1200" xmlns="http://www.w3.org/2000/svg">
 <path d="m250 880c-11 0-20 9-20 20v80c0 11 9 20 20 20h20v60c0 11 9 20 20 20h160c11 0 20-9 20-20v-60h20c11 0 20-9 20-20v-80c0-11-9-20-20-20h-20v-180h260c0 11 9 20 20 20h120c11 0 20-9 20-20h60c11 0 20-9 20-20v-160c0-11-9-20-20-20h-60c0-11-9-20-20-20h-120c-11 0-20 9-20 20h-260v-180h20c11 0 20-9 20-20v-80c0-11-9-20-20-20h-20v-60c0-11-9-20-20-20h-160c-11 0-20 9-20 20v60h-20c-11 0-20 9-20 20v80c0 11 9 20 20 20h20v560zm180 160h-120v-40h120zm40-80h-200v-40h200zm460-420v120h-40v-120zm-80-20v160h-80v-160zm-540-360h120v40h-120zm-40 80h200v40h-200zm40 80h120v200c0 11 9 20 20 20h280v120h-280c-11 0-20 9-20 20v200h-120z"/>
</svg>
