<?xml version="1.0" encoding="UTF-8"?>
<svg width="1200pt" height="1200pt" version="1.1" viewBox="0 0 1200 1200" xmlns="http://www.w3.org/2000/svg">
 <path d="m270 140v60h200v-60c0-11-9-20-20-20h-160c-11 0-20 9-20 20z"/>
 <path d="m450 1080c11 0 20-9 20-20v-60h-200v60c0 11 9 20 20 20z"/>
 <path d="m470 400h-200v400h200v-100h180v-200h-180z"/>
 <path d="m890 500v200h60c11 0 20-9 20-20v-160c0-11-9-20-20-20z"/>
 <path d="m690 500v200c0 11 9 20 20 20h120c11 0 20-9 20-20v-200c0-11-9-20-20-20h-120c-11 0-20 9-20 20z"/>
 <path d="m230 940c0 11 9 20 20 20h240c11 0 20-9 20-20v-80c0-11-9-20-20-20h-240c-11 0-20 9-20 20z"/>
 <path d="m230 260v80c0 11 9 20 20 20h240c11 0 20-9 20-20v-80c0-11-9-20-20-20h-240c-11 0-20 9-20 20z"/>
</svg>
