<?xml version="1.0" encoding="UTF-8"?>
<svg width="1200pt" height="1200pt" version="1.1" viewBox="0 0 1200 1200" xmlns="http://www.w3.org/2000/svg">
 <path d="m928.22 1058.2 0.375 0.51562 0.89062 0.84375 0.23438 0.1875c0.79688 0.5625 1.7344 0.9375 2.7188 1.0312l0.75 0.046875h159.71c10.641 0 20.906-4.2188 28.406-11.766 7.5469-7.5469 11.766-17.766 11.766-28.406v-54.562c0-0.42188-0.046874-0.84375-0.14062-1.2656-0.32813-4.125-1.2188-8.2031-2.7656-12.141-1.125-2.9531-2.25-5.8594-3.3281-8.625-6.375-16.453-22.219-27.328-39.891-27.328h-147.84v-438.79c0-90.047-35.766-176.44-99.469-240.14s-150.05-99.469-240.14-99.469c-90.047 0-176.44 35.766-240.14 99.469-63.703 63.703-99.469 150.05-99.469 240.14v438.79h-147.84c-17.672 0-33.516 10.875-39.891 27.328-1.0781 2.7656-2.2031 5.6719-3.3281 8.625-1.5469 3.9375-2.4375 8.0156-2.7656 12.141-0.09375 0.42188-0.14063 0.79688-0.14063 1.2656v54.562c0 10.641 4.2188 20.906 11.766 28.406 7.5469 7.5469 17.766 11.766 28.406 11.766h159.71l0.75-0.046875c1.0312-0.09375 1.9688-0.46875 2.7656-1.0312l0.28125-0.23438 0.84375-0.79688 0.375-0.46875 60.188-84.844c0.70312-1.0312 1.125-2.2031 1.125-3.4688v-498.37c0-147.66 119.72-267.37 267.37-267.37h0.046874c147.66 0 267.37 119.72 267.37 267.37v498.37c0 1.2656 0.375 2.4375 1.125 3.4688l60.188 84.844zm-755.06-106.59c18.141 0 34.219 2.625 44.203 6.8438 2.7188 1.1719 4.9688 2.3906 6.4219 3.75 0.46875 0.46875 1.0312 0.75 1.0312 1.2656s-0.5625 0.79688-1.0312 1.2188c-1.5 1.4062-3.7031 2.625-6.4219 3.75-9.9844 4.2188-26.062 6.8438-44.203 6.8438s-34.219-2.625-44.203-6.8438c-2.7188-1.1719-4.9688-2.3906-6.4219-3.75-0.46875-0.46875-1.0312-0.75-1.0312-1.2188 0-0.51562 0.5625-0.79688 1.0312-1.2656 1.5-1.4062 3.7031-2.625 6.4219-3.75 9.9844-4.2188 26.062-6.8438 44.203-6.8438zm852.74 0c18.141 0 34.219 2.625 44.203 6.8438 2.7188 1.1719 4.9688 2.3906 6.4219 3.75 0.46875 0.46875 1.0312 0.75 1.0312 1.2656s-0.5625 0.79688-1.0312 1.2188c-1.5 1.4062-3.7031 2.625-6.4219 3.75-9.9844 4.2188-26.062 6.8438-44.203 6.8438s-34.219-2.625-44.203-6.8438c-2.7188-1.1719-4.9688-2.3906-6.4219-3.75-0.46875-0.46875-1.0312-0.75-1.0312-1.2188 0-0.51562 0.5625-0.79688 1.0312-1.2656 1.5-1.4062 3.7031-2.625 6.4219-3.75 9.9844-4.2188 26.062-6.8438 44.203-6.8438z" fill-rule="evenodd"/>
</svg>
