<?xml version="1.0" encoding="UTF-8"?>
<svg width="1200pt" height="1200pt" version="1.1" viewBox="0 0 1200 1200" xmlns="http://www.w3.org/2000/svg">
 <path d="m400 1080h80c11 0 20-9 20-20v-64.398c-40.199-3.3984-80.199-8.6016-120-16.199v80.598c0 11 9 20 20 20z"/>
 <path d="m720 1080h80c11 0 20-9 20-20v-80.602c-39.801 7.6016-79.801 12.801-120 16.199v64.402c0 11 9 20 20 20z"/>
 <path d="m920 180c0-9-6-17-14.801-19.398-202.6-54-407.8-54-610.4 0-8.8008 2.3984-14.801 10.398-14.801 19.398v560h640zm-240 360c0 44.199-35.801 80-80 80s-80-35.801-80-80v-140h60c11 0 20-9 20-20s-9-20-20-20h-60v-20c0-44.199 35.801-80 80-80s80 35.801 80 80z"/>
 <path d="m920 900v-120h-640v120c0 9 6 17 14.801 19.398 101.2 27 203.2 40.402 305.2 40.402s204-13.398 305.2-40.398c8.8008-2.4023 14.801-10.402 14.801-19.402zm-460-20h-20c-11 0-20-9-20-20s9-20 20-20h20c11 0 20 9 20 20s-9 20-20 20zm180 0h-80c-11 0-20-9-20-20s9-20 20-20h80c11 0 20 9 20 20s-9 20-20 20zm120 0h-20c-11 0-20-9-20-20s9-20 20-20h20c11 0 20 9 20 20s-9 20-20 20z"/>
</svg>
