<?xml version="1.0" encoding="UTF-8"?>
<svg width="1200pt" height="1200pt" version="1.1" viewBox="0 0 1200 1200" xmlns="http://www.w3.org/2000/svg">
 <path d="m640 840h-80c-11 0-20 9-20 20s9 20 20 20h80c11 0 20-9 20-20s-9-20-20-20z"/>
 <path d="m460 840h-20c-11 0-20 9-20 20s9 20 20 20h20c11 0 20-9 20-20s-9-20-20-20z"/>
 <path d="m760 840h-20c-11 0-20 9-20 20s9 20 20 20h20c11 0 20-9 20-20s-9-20-20-20z"/>
 <path d="m720 1080h80c11 0 20-9 20-20v-121.2c28.398-5.3984 56.801-11.801 85.199-19.398 8.8008-2.6016 14.801-10.402 14.801-19.402v-720c0-9-6-17-14.801-19.398-202.6-54-407.8-54-610.4 0-8.8008 2.3984-14.801 10.199-14.801 19.398v720c0 9 6 17 14.801 19.398 28.398 7.6016 56.801 14 85.199 19.398v121.2c0 11 9 20 20 20h80c11 0 20-9 20-20v-104.6c33.398 2.8008 66.602 4.3984 100 4.3984s66.602-1.6016 100-4.3984v104.6c0 11 9 20 20 20zm60-40h-40v-88.801c13.398-1.6016 26.602-3.3984 40-5.6016zm100-844.6v564.6h-560v-564.6c185.8-47 374.2-47 560 0zm-420 844.6h-40v-94.398c13.398 2 26.602 4 40 5.6016zm-140-155.6v-84.398h560v84.602c-185.8 46.797-374.2 46.797-560-0.20312z"/>
 <path d="m600 620c44.199 0 80-35.801 80-80v-200c0-44.199-35.801-80-80-80s-80 35.801-80 80v200c0 44 35.801 80 80 80zm0-320c22 0 40 18 40 40v200c0 22-18 40-40 40s-40-18-40-40v-140h20c11 0 20-9 20-20s-9-20-20-20h-20v-20c0-22.199 18-40 40-40z"/>
</svg>
