<?xml version="1.0" encoding="UTF-8"?>
<svg width="1200pt" height="1200pt" version="1.1" viewBox="0 0 1200 1200" xmlns="http://www.w3.org/2000/svg">
 <path d="m976 585v-348.6c23.199-8.1992 40-30.199 40-56.398 0-33-27-60-60-60h-280c-33 0-60 27-60 60 0 26 16.801 48 40 56.398v323.6h-412c-16.199 0-31.398 6.3984-42.199 17.398-11.602 11.203-17.801 26.402-17.801 42.602 0 33 26.602 59.801 59.602 60 40.199 86.602 98.602 148.4 174 182.8 11.602 72.801-11.801 132.4-71.602 181.8-6.3984 5.3984-9 14.199-6 22.199 2.8008 8 10.398 13.199 18.801 13.199h485.2c8.1992 0 15.801-5.1992 18.602-12.801 2.8008-7.6016 0.80078-16.398-5.1992-22-47.801-43-72-86.801-74-134.2-2.8008-66.199 36-139 125.8-235.6 38.598-12.199 66.797-47.797 66.797-90.398zm-40 0c0 30.398-24.602 55-55 55h-185v-400h240zm-260-425h280c11 0 20 9 20 20s-9 20-20 20h-280c-11 0-20-9-20-20s9-20 20-20zm-452 460c0-5.3984 2-10.199 6.1992-14.199 3.4023-3.8008 8.4023-5.8008 13.801-5.8008h412v40h-412c-11.199 0-20-9-20-20zm519.4 292.6c2 44.602 19.801 87.398 53.398 127.4h-389.2c46.398-54.801 62.398-120.2 47.199-195.2-1.3984-6.6016-5.8008-12-11.801-14.602-67-28-118-77.199-155.4-150.2h563.4c-57.199 66.199-111.4 147.4-107.6 232.6z"/>
</svg>
