<?xml version="1.0" encoding="UTF-8"?>
<svg width="1200pt" height="1200pt" version="1.1" viewBox="0 0 1200 1200" xmlns="http://www.w3.org/2000/svg">
 <path d="m665.44 138.1v-35.578c0-3.7031-1.5-7.0781-3.9375-9.5156s-5.8125-3.9375-9.5156-3.9375v-0.046875h-64.594v0.046875c-3.7031 0-7.0781 1.5-9.5156 3.9375s-3.9375 5.8125-3.9375 9.5156v35.578l91.5 0.046875z" fill-rule="evenodd"/>
 <path d="m679.5 166.22h-320.53c-0.32812 0-0.60938 0.14062-0.79688 0.32812s-0.32812 0.46875-0.32812 0.79688v50.156c0 0.32812 0.14062 0.60938 0.32812 0.79688s0.46875 0.32812 0.79688 0.32812h354.24c0.32812 0 0.60938-0.14062 0.79688-0.32812s0.32812-0.46875 0.32812-0.79688l-0.046875-50.156c0-0.32812-0.14062-0.60938-0.32812-0.79688s-0.46875-0.32812-0.79688-0.32812z" fill-rule="evenodd"/>
 <path d="m573.89 246.71h91.547v49.078h-91.547z" fill-rule="evenodd"/>
 <path d="m752.02 324.56h-264.74c-25.266 0-48.094 10.219-64.641 26.766-16.547 16.547-26.766 39.422-26.766 64.641v370.22c0 25.266 10.219 48.094 26.766 64.641 16.594 16.594 39.422 26.812 64.641 26.812h38.25c0.42187-0.046875 0.84375-0.046875 1.2188-0.046875 0.42187 0 0.84375 0 1.2188 0.046875h184.55v-0.046875c0.42188 0 0.84375 0 1.2656 0.046875h38.25v-0.046875c25.266 0 48.094-10.219 64.641-26.766 16.547-16.547 26.766-39.422 26.766-64.641v-370.22c0-25.266-10.219-48.094-26.766-64.641-16.5-16.547-39.375-26.766-64.641-26.766zm-270.74 46.547h276.79c11.156 0 21.281 4.5469 28.641 11.859 7.3125 7.3125 11.859 17.438 11.859 28.641v378.94c0 11.156-4.5469 21.281-11.859 28.641-7.3125 7.3125-17.438 11.859-28.641 11.859h-276.79c-11.156 0-21.281-4.5469-28.641-11.859-7.3125-7.3125-11.859-17.438-11.859-28.641v-378.94c0-11.156 4.5469-21.281 11.859-28.641 7.3594-7.3594 17.484-11.859 28.641-11.859z" fill-rule="evenodd"/>
 <path d="m758.06 399.19h-276.79c-3.4219 0-6.5156 1.4062-8.7656 3.6094-2.25 2.25-3.6094 5.3438-3.6094 8.7656v250.18c11.531 2.0625 18.891 6.6094 26.297 11.203 6.5156 4.0312 13.031 8.0625 25.594 8.0625s19.078-4.0312 25.594-8.0625c9.9844-6.1875 19.922-12.328 40.312-12.328s30.375 6.1875 40.312 12.328c6.5156 4.0312 13.031 8.0625 25.594 8.0625 12.609 0 19.125-4.0312 25.594-8.0625 9.9844-6.1875 19.922-12.328 40.312-12.328s30.328 6.1875 40.312 12.328c3.5156 2.2031 7.0781 4.3594 11.578 5.9062v-267.28c0-3.4219-1.4062-6.5156-3.6094-8.7656-2.2031-2.2031-5.2969-3.6094-8.7188-3.6094z" fill-rule="evenodd"/>
 <path d="m692.95 696.79c-9.9844 6.1875-19.922 12.328-40.312 12.328s-30.328-6.1875-40.312-12.328c-6.5156-4.0312-13.031-8.0625-25.594-8.0625-12.609 0-19.125 4.0312-25.594 8.0625-9.9844 6.1875-19.922 12.328-40.312 12.328s-30.328-6.1875-40.312-12.328c-3.5156-2.2031-7.0781-4.3594-11.578-5.9062v99.703c0 3.4219 1.4062 6.5156 3.6094 8.7656 2.25 2.25 5.3438 3.6094 8.7656 3.6094h276.79c3.4219 0 6.5156-1.4062 8.7656-3.6094 2.25-2.25 3.6094-5.3438 3.6094-8.7656v-82.594c-11.531-2.0625-18.891-6.6094-26.297-11.156-6.5156-4.0312-13.031-8.0625-25.594-8.0625-12.609-0.046875-19.125 3.9844-25.641 8.0156z" fill-rule="evenodd"/>
 <path d="m698.48 905.63h-157.64v43.453c0 5.0156 2.0156 9.5156 5.2969 12.797s7.7812 5.2969 12.797 5.2969h121.5c9.9844 0 18.094-8.0625 18.094-18.094z" fill-rule="evenodd"/>
 <path d="m665.44 995.29h-91.547v101.25c0 5.0156 2.0156 9.5156 5.2969 12.797s7.7812 5.2969 12.797 5.2969h55.359c5.0156 0 9.5156-2.0156 12.797-5.2969 3.3281-3.3281 5.3438-7.8281 5.3438-12.797h-0.046875z" fill-rule="evenodd"/>
</svg>
