<svg width="143" height="267" xmlns="http://www.w3.org/2000/svg">

 <g>
  <title>Layer 1</title>
  <g id="svg_9">
   <path transform="rotate(89.9195 71.6425 165.69)" stroke="#ffffff" id="svg_2" d="m-29.85746,94.19035l101.5,0l0,0c56.05691,0 101.5,32.01164 101.5,71.49999c0,39.48836 -45.44309,71.49999 -101.5,71.49999l-101.5,0l0,-142.99999z" fill="#ffffff"/>
   <path transform="rotate(90 70.2476 163.39)" id="svg_3" d="m-5.25245,125.39035l75.5,0l0,0c41.69751,0 75.5,17.01318 75.5,38c0,20.98682 -33.8025,38 -75.5,38l-75.5,0l0,-76z" stroke="#ffffff" fill="#ffffff"/>
   <rect id="svg_4" height="16.98083" width="43.77279" y="46.41426" x="47.26086" stroke="#ffffff" fill="#ffffff"/>
   <rect id="svg_5" height="32.07489" width="20.37699" y="13.96201" x="59.33612" stroke="#ffffff" fill="#ffffff"/>
   <rect id="svg_6" height="9.81114" width="21.50905" y="0" x="59.07641" stroke="#ffffff" fill="#ffffff"/>
   <rect transform="rotate(-0.821126 70.468 11.5092)" stroke="#ffffff" id="svg_7" height="5.66028" width="43.39544" y="8.67909" x="48.77027" fill="#ffffff"/>
   <rect id="svg_8" height="11.6979" width="13.96201" y="5.4806" x="92.54306" stroke="#ffffff" fill="#ffffff"/>
  </g>
 </g>
</svg>