<?xml version="1.0" encoding="UTF-8"?>
<svg width="1200pt" height="1200pt" version="1.1" viewBox="0 0 1200 1200" xmlns="http://www.w3.org/2000/svg">
 <path d="m800 490c4.3984 0 8.6016-1.3984 12-4l74.602-56h173.4c11 0 20-9 20-20s-9-20-20-20h-180c-4.3984 0-8.6016 1.3984-12 4l-74.602 56h-253.4c-11 0-20 9-20 20v60h-60c-11 0-20 9-20 20v20h-60c0-11-9-20-20-20h-80c-11 0-20 9-20 20h-120c-11 0-20 9-20 20v160c0 11 9 20 20 20h120c0 11 9 20 20 20h80c11 0 20-9 20-20h60v20c0 11 9 20 20 20h280c11 0 20-9 20-20v-20h60v1.1992c0 11 9 20 20 20h80c11 0 20-9 20-20v-1.1992h120c11 0 20-9 20-20v-160c0-11-9-20-20-20h-120.2c-0.60156-10.398-9.1992-18.801-19.801-18.801h-80c-10.602 0-19 8.3984-19.801 18.801h-60.199v-20c0-11-9-20-20-20h-60v-40zm-640 240v-120h100v120zm140 20v-160h40v160zm80-20v-120h60v120zm660 0h-100v-120h100zm-140 21.199h-40v-160h40zm-80-141.2v120h-60v-120zm-100 160h-240v-200h240zm-80-240h-80v-40h80z"/>
</svg>
