<?xml version="1.0" encoding="UTF-8"?>
<svg width="1200pt" height="1200pt" version="1.1" viewBox="0 0 1200 1200" xmlns="http://www.w3.org/2000/svg">
 <path d="m1039.5 674.81h-54.188v-16.125c0-21.844-17.766-39.609-39.609-39.609h-50.062c-15.656 0-29.062 9.1875-35.484 22.359h-100.78v-91.547c0-21.844-17.766-39.609-39.609-39.609h-11.953v-43.781c0-21.844-17.766-39.609-39.609-39.609h-24.469v-54.375c7.6875-5.3438 14.391-12 19.734-19.734h137.11c12.328 13.594 29.906 21.516 48.422 21.516 36 0 65.297-29.297 65.297-65.297s-29.297-65.297-65.297-65.297c-18.516 0-36.141 7.9219-48.422 21.516h-137.06c-13.922-20.203-37.219-33.469-63.562-33.469s-49.594 13.266-63.562 33.469h-137.06c-12.328-13.594-29.906-21.516-48.422-21.516-36 0-65.297 29.297-65.297 65.297s29.297 65.297 65.297 65.297c18.516 0 36.141-7.9219 48.422-21.516h137.11c5.3438 7.6875 12 14.391 19.734 19.734v54.375h-24.469c-21.844 0-39.609 17.766-39.609 39.609v43.781h-11.953c-21.844 0-39.609 17.766-39.609 39.609v91.547h-100.78c-6.4219-13.172-19.875-22.359-35.484-22.359h-50.062c-21.844 0-39.609 17.766-39.609 39.609v16.125h-54.188c-26.438 0-47.953 21.516-47.953 47.953v141.79c0 26.438 21.516 47.953 47.953 47.953h54.188v16.125c0 21.844 17.766 39.609 39.609 39.609h50.062c15.656 0 29.062-9.1875 35.484-22.359h520.4c6.4219 13.172 19.875 22.359 35.484 22.359h50.062c21.844 0 39.609-17.766 39.609-39.609v-16.125h54.188c26.438 0 47.953-21.516 47.953-47.953v-141.79c0-26.438-21.516-47.953-47.953-47.953zm-231.94-380.39c4.7344 0 9.1875-2.2969 11.906-6.1875 6.7969-9.6094 17.812-15.328 29.531-15.328 19.922 0 36.094 16.219 36.094 36.094 0 19.922-16.219 36.094-36.094 36.094-11.719 0-22.734-5.7188-29.531-15.328-2.7188-3.8906-7.1719-6.1875-11.906-6.1875h-131.81c0.89062-4.7344 1.4531-9.6094 1.4531-14.625 0-4.9688-0.51562-9.8438-1.4062-14.578h131.81zm-207.61-33.469c26.484 0 48.047 21.562 48.047 48s-21.516 48.047-48.047 48.047c-26.578 0-48.047-21.609-48.047-48.047 0-26.484 21.562-48 48.047-48zm-207.61 62.625c-4.7344 0-9.1875 2.2969-11.906 6.1875-6.7969 9.6094-17.812 15.328-29.531 15.328-19.922 0-36.094-16.219-36.094-36.094 0-19.922 16.219-36.094 36.094-36.094 11.719 0 22.734 5.7188 29.531 15.328 2.7188 3.8906 7.1719 6.1875 11.906 6.1875h131.81c-0.89062 4.7344-1.4062 9.5625-1.4062 14.578s0.51562 9.8906 1.4531 14.625h-131.81zm193.03 61.172c4.7344 0.89062 9.6094 1.4062 14.578 1.4062 5.0156 0 9.8438-0.51562 14.578-1.4062v42.094h-29.203v-42.094zm-64.078 81.75c0-5.7656 4.6875-10.406 10.406-10.406h136.45c5.7656 0 10.406 4.6875 10.406 10.406v43.781h-157.31v-43.781zm-51.562 83.391c0-5.7656 4.6875-10.406 10.406-10.406h239.58c5.7656 0 10.406 4.6875 10.406 10.406v98.953c0 71.812-58.406 130.22-130.22 130.22s-130.22-58.406-130.22-130.22v-98.953zm-309.32 333.42c-10.359 0-18.75-8.4375-18.75-18.75v-141.79c0-10.359 8.4375-18.75 18.75-18.75h54.188v179.29zm154.26 45.328c0 5.7656-4.6875 10.406-10.406 10.406h-50.062c-5.7656 0-10.406-4.6875-10.406-10.406v-269.9c0-5.7656 4.6875-10.406 10.406-10.406h50.062c5.7656 0 10.406 4.6875 10.406 10.406zm541.31-11.953h-512.11v-246.05h98.297c10.688 77.578 77.25 137.63 157.74 137.63 80.484 0 147.05-60 157.74-137.63h98.297v246.05zm89.719 22.359h-50.062c-5.7656 0-10.406-4.6875-10.406-10.406v-269.9c0-5.7656 4.6875-10.406 10.406-10.406h50.062c5.7656 0 10.406 4.6875 10.406 10.406v30.375c0 0.09375-0.046875 0.23438-0.046875 0.32812s0.046875 0.23438 0.046875 0.32812v207.84c0 0.09375-0.046875 0.23438-0.046875 0.32812s0.046875 0.23438 0.046875 0.32812v30.375c0 5.7656-4.6875 10.406-10.406 10.406zm112.55-74.484c0 10.359-8.4375 18.75-18.75 18.75h-54.188v-179.29h54.188c10.359 0 18.75 8.4375 18.75 18.75z"/>
</svg>
