<?xml version="1.0" encoding="UTF-8"?>
<svg width="1200pt" height="1200pt" version="1.1" viewBox="0 0 1200 1200" xmlns="http://www.w3.org/2000/svg">
 <path d="m1040 120h-880c-22 0-40 18-40 40v880c0 22 18 40 40 40h880c22 0 40-18 40-40v-880c0-22-18-40-40-40zm0 200h-480v-160h480zm-520-160v160h-360v-160zm-360 880v-680h880v680z"/>
 <path d="m900 299.8c33 0 59.801-26.801 59.801-59.801s-26.801-59.801-59.801-59.801-59.801 26.801-59.801 59.801 26.801 59.801 59.801 59.801zm0-79.602c11 0 19.801 8.8008 19.801 19.801s-8.8008 19.801-19.801 19.801-19.801-8.8008-19.801-19.801 8.8008-19.801 19.801-19.801z"/>
 <path d="m720 299.8c33 0 59.801-26.801 59.801-59.801s-26.801-59.801-59.801-59.801-59.801 26.801-59.801 59.801 26.801 59.801 59.801 59.801zm0-79.602c11 0 19.801 8.8008 19.801 19.801s-8.8008 19.801-19.801 19.801-19.801-8.8008-19.801-19.801 8.8008-19.801 19.801-19.801z"/>
 <path d="m865 816.8c-0.19922-1.1992-0.19922-2.3984-0.60156-3.6016-0.39844-1.1992-1.1992-2.1992-1.8008-3.3984-0.60156-1.1992-1.1992-2.1992-2-3.1992-0.80078-1-2-1.8008-3.1992-2.6016-0.80078-0.60156-1.3984-1.3984-2.3984-2-0.19922-0.19922-0.39844 0-0.80078-0.19922-0.19922-0.19922-0.39844-0.39844-0.60156-0.39844-25-10.801-45.199-30.199-56.801-54.602-6.8008-14.199-10.398-30-10.398-46.801s3.3984-32.602 10.398-47c11.602-24.398 31.801-43.801 56.801-54.602 0.19922-0.19922 0.39844-0.39844 0.60156-0.39844 0.19922-0.19922 0.39844 0 0.80078-0.19922 1-0.60156 1.6016-1.3984 2.3984-2 1-0.80078 2.1992-1.6016 3.1992-2.6016 0.80078-1 1.3984-2 2-3.1992 0.60156-1.1992 1.3984-2.1992 1.8008-3.3984 0.39844-1.1992 0.60156-2.3984 0.60156-3.6016 0.19922-1.1992 0.39844-2.6016 0.39844-3.8008s-0.39844-2.6016-0.80078-3.8008c-0.19922-1-0.19922-2.1992-0.60156-3.1992-0.19922-0.19922-0.39844-0.39844-0.39844-0.60156-0.19922-0.19922 0-0.39844-0.19922-0.80078-48.598-92.996-144-150.8-248.8-150.8-154.4 0-280 125.6-280 280s125.6 280 280 280c105 0 200.2-57.801 248.8-151 0-0.19922 0-0.39844 0.19922-0.60156 0.19922-0.19922 0.39844-0.39844 0.39844-0.80078 0.39844-1 0.39844-2.1992 0.60156-3.1992 0.39844-1.1992 0.80078-2.6016 0.80078-3.8008-0.003906-1.1992-0.20312-2.3984-0.40234-3.7969zm-108.2-61.402c-22.801 58.801-79 98-142.4 98-84.602 0-153.4-68.801-153.4-153.4 0-84.602 68.801-153.4 153.4-153.4 63.398 0 119.6 39.199 142.4 98-7 17.398-10.602 35.801-10.602 55.398 0 19.602 3.8008 38 10.602 55.398zm-142.2 184.6c-132.4 0-240-107.6-240-240s107.6-240 240-240c83.398 0 159.6 42.602 203.4 112.4-13.801 8.3984-25.801 19.199-36 31.398-34-59.199-97.199-97.199-167.4-97.199-106.6 0-193.4 86.801-193.4 193.4 0 106.6 86.801 193.4 193.4 193.4 70 0 133.4-37.801 167.4-97.199 10.398 12.199 22.398 22.801 36 31.398-43.801 69.805-120.2 112.41-203.4 112.41z"/>
 <path d="m400 260h40c11 0 20-9 20-20s-9-20-20-20h-40c-11 0-20 9-20 20s9 20 20 20z"/>
 <path d="m280 260h40c11 0 20-9 20-20s-9-20-20-20h-40c-11 0-20 9-20 20s9 20 20 20z"/>
</svg>
