<?xml version="1.0" encoding="UTF-8"?>
<svg width="1200pt" height="1200pt" version="1.1" viewBox="0 0 1200 1200" xmlns="http://www.w3.org/2000/svg">
 <path d="m748 520h-20v-240h20c9.1992 0 17.199-6.1992 19.398-15 2.1992-8.8008-1.8008-18.199-9.8008-22.602l-220-120c-6-3.1992-13.199-3.1992-19.199 0l-220 120c-8 4.3984-12 13.602-9.8008 22.602 2.4023 8.8008 10.402 15 19.402 15h20v240h-20c-11 0-20 9-20 20s9 20 20 20h40v500c0 1 0.39844 1.8008 0.60156 2.8008 0.19922 1.3984 0.39844 2.8008 0.80078 4.1992 0.60156 1.3984 1.3984 2.3984 2 3.6016 0.60156 0.80078 0.80078 1.8008 1.3984 2.6016 0.19922 0.19922 0.39844 0.19922 0.60156 0.39844 1.3984 1.6016 3.1992 2.8008 5.1992 3.8008 0.60156 0.19922 1 0.80078 1.3984 1 2.3984 1 5.1992 1.6016 8 1.6016 2.6016 0 5-0.60156 7.3984-1.3984 1-0.39844 1.8008-1 2.8008-1.6016 1-0.60156 2.1992-1 3.1992-1.8008l146.8-128.4 146.8 128.4c1 0.80078 2 1.1992 3.1992 1.8008 1 0.60156 1.6016 1.1992 2.6016 1.6016 2.1992 0.79297 4.8008 1.3945 7.1992 1.3945 2.8008 0 5.6016-0.60156 8-1.6016 0.60156-0.19922 1-0.80078 1.3984-1 1.8008-1 3.6016-2.1992 5.1992-3.8008 0.19922-0.19922 0.39844-0.19922 0.60156-0.39844 0.60156-0.80078 1-1.8008 1.3984-2.6016 0.80078-1.1992 1.6016-2.3984 2-3.6016 0.60156-1.3984 0.60156-2.8008 0.80078-4.1992 0.19922-1 0.60156-1.8008 0.60156-2.8008v-500h40c11 0 20-9 20-20s-8.8008-20-20-20zm-253.2 140-106.6 80v-160zm-66.801-100h200l-100 75zm100 125 128.2 96.199-128.2 112.2-128.2-112.2zm33.398-25 106.6-80v160zm-33.398-497.2 141.6 77.199h-283zm-160 117.2h320v240h-320zm20 736v-192l109.6 96zm280-192v191.8l-109.6-95.801z"/>
 <path d="m608 320h-160c-11 0-20 9-20 20v120c0 11 9 20 20 20h160c11 0 20-9 20-20v-120c0-11-8.8008-20-20-20zm-20 120h-120v-80h120z"/>
</svg>
