<?xml version="1.0" encoding="UTF-8"?>
<svg width="1200pt" height="1200pt" version="1.1" viewBox="0 0 1200 1200" xmlns="http://www.w3.org/2000/svg">
 <path d="m329 380v440h200v-58.602l200.6-200.4-141.4-141.4-59.199 59v-98.602z"/>
 <path d="m905 385.4c7.8008-7.8008 7.8008-20.398 0-28.199l-113-113.2c-7.8008-7.8008-20.602-7.8008-28.398 0l-34.199 34.199 141.4 141.4z"/>
 <path d="m509 120h-160c-11 0-20 9-20 20v40h200v-40c0-11-8.8008-20-20-20z"/>
 <path d="m349 1080h160c11.199 0 20-9 20-20v-40h-200v40c0 11 9 20 20 20z"/>
 <path d="m786 552.8c5.1992 0 10.199-2 14.199-6l56.602-56.602c7.8008-7.8008 7.8008-20.398 0-28.199l-169.8-169.6c-7.8008-8-20.398-8-28.199 0l-56.602 56.398c-7.8008 7.8008-7.8008 20.602 0 28.398l169.8 169.6c3.8008 4.0039 9 6.0039 14 6.0039z"/>
 <path d="m549 220h-240c-11 0-20 9-20 20v80c0 11 9 20 20 20h240c11.199 0 20-9 20-20v-80c0-11-8.8008-20-20-20z"/>
 <path d="m309 980h240c11.199 0 20-9 20-20v-80c0-11-8.8008-20-20-20h-240c-11 0-20 9-20 20v80c0 11 9 20 20 20z"/>
</svg>
