<?xml version="1.0" encoding="UTF-8"?>
<svg width="1200pt" height="1200pt" version="1.1" viewBox="0 0 1200 1200" xmlns="http://www.w3.org/2000/svg">
 <path d="m520 920.6h160v-416.8l236-153.8c-0.19922-0.39844-0.60156-0.80078-0.80078-1.1992l-85.398-133.6-229.8 150-229.8-150-85.801 134.4c0 0.19922-0.19922 0.19922-0.39844 0.39844l236 153.8z"/>
 <path d="m680 1080.6c11 0 20-9 20-20v-80c0-11-9-20-20-20h-160c-11 0-20 9-20 20v80c0 11 9 20 20 20z"/>
 <path d="m936.6 122.6-67.398 43c-4.3984 2.8008-7.6016 7.3984-8.6016 12.602-1.1992 5.1992-0.19922 10.602 2.6016 15l86.199 134.8c2.8008 4.6016 7.3984 7.6016 12.602 8.8008 1.3984 0.39844 2.8008 0.39844 4.1992 0.39844 3.8008 0 7.6016-1 10.801-3l67.398-43.199c9.3984-5.8008 12-18.199 6-27.602l-86-134.8c-6.0039-9.2031-18.402-12-27.801-6z"/>
 <path d="m155.6 291 67.398 43.199c3.1992 2 7 3 10.801 3 1.3984 0 2.8008 0 4.1992-0.39844 5.1992-1.1992 9.8008-4.1992 12.602-8.8008l86.199-134.8c2.8008-4.3984 3.8008-9.8008 2.6016-15-1-5.1992-4.1992-9.8008-8.6016-12.602l-67.398-43c-9.3984-6-21.801-3.1992-27.801 6l-86 134.8c-6 9.4023-3.4023 21.801 6 27.602z"/>
</svg>
