<?xml version="1.0" encoding="UTF-8"?>
<svg width="1200pt" height="1200pt" version="1.1" viewBox="0 0 1200 1200" xmlns="http://www.w3.org/2000/svg">
 <path d="m155.6 291 67.398 43c3.1992 2 7 3.1992 10.801 3.1992 1.3984 0 2.8008-0.19922 4.3984-0.39844 5.1992-1.1992 9.6016-4.1992 12.398-8.6016l269.4 175.6v456.8c-11 0-20 9-20 20v80c0 11 9 20 20 20h160c11 0 20-9 20-20v-80c0-11-9-20-20-20v-456.8l269.4-175.6c2.8008 4.3984 7.3984 7.6016 12.398 8.6016 1.3984 0.39844 2.8008 0.39844 4.3984 0.39844 3.8008 0 7.6016-1 10.801-3.1992l67.398-43c9.3984-6 12-18.398 6-27.602l-86.199-134.8c-6-9.1992-18.398-12-27.602-6l-67.398 43c-4.3984 2.8008-7.6016 7.3984-8.8008 12.602-1.1992 5.1992-0.19922 10.602 2.6016 15l0.19922 0.19922-263.2 171.8-263.4-171.8 0.19922-0.19922c2.8008-4.3984 3.8008-9.8008 2.6016-15-1.1992-5.1992-4.1992-9.6016-8.8008-12.602l-67.398-43c-9.3984-6-21.602-3.1992-27.602 6l-86.199 134.8c-5.8008 9.4023-3.2031 21.801 6.1992 27.602zm504.4 749.6h-120v-40h120zm281.4-873.6 64.602 101.2-33.801 21.602-64.602-101.2zm-352.4 238.8c3.3984 2.1992 7.1992 3.1992 11 3.1992s7.6016-1 11-3.1992l274-178.6 43 67.398-278.8 181.8c-5.8008 3.6016-9.1992 9.8008-9.1992 16.602v467.6h-80v-467.6c0-6.8008-3.3984-13-9-16.801l-278.8-181.8 43-67.398zm-330.4-238.8 33.801 21.602-64.602 101.2-33.801-21.602z"/>
</svg>
