<?xml version="1.0" encoding="UTF-8"?>
<svg width="1200pt" height="1200pt" version="1.1" viewBox="0 0 1200 1200" xmlns="http://www.w3.org/2000/svg">
 <path d="m1060 623.6h-80c-11 0-20 9-20 20h-240v-20c0-11-9-20-20-20v-27.398c0-24.602-17-45.199-40-50.801v-81.602h100c22 0 40-18 40-40v-67.199c0-11-9-20-20-20-19.602 0-30.199 5-38.602 9.1992-6.6016 3.1992-11 5.1992-21.398 5.1992s-14.801-2-21.398-5.1992c-8.6016-4-19.199-9.1992-38.602-9.1992-19.602 0-30.199 5-38.602 9.1992-6.6016 3.1992-10.801 5.1992-21.398 5.1992-10.398 0-14.801-2-21.398-5.1992-8.6016-4-19.199-9.1992-38.602-9.1992-19.602 0-30.199 5-38.602 9.1992-6.6016 3.1992-10.801 5.1992-21.398 5.1992-10.398 0-14.801-2-21.199-5.1992-8.6016-4-19-9.1992-38.602-9.1992-11 0-20 9-20 20v67.199c0 22 18 40 40 40h100v81.602c-23 5.6016-40 26.199-40 50.801v27.398c-11 0-20 9-20 20v20h-240.2c0-11-9-20-20-20h-80c-11 0-20 9-20 20v200c0 11 9 20 20 20h80c11 0 20-9 20-20h240v20c0 11 9 20 20 20h200c11 0 20-9 20-20v-20h240c0 11 9 20 20 20h80c11 0 20-9 20-20v-200c0-11-9-20-20-20zm-620-262.6c0.39844 0.19922 0.80078 0.39844 1.1992 0.60156 8.6016 4 19 9.1992 38.602 9.1992 19.602 0 30.199-5 38.602-9.1992 6.6016-3.1992 10.801-5.1992 21.398-5.1992 10.602 0 14.801 2 21.398 5.1992 8.6016 4 19.199 9.1992 38.602 9.1992 19.602 0 30.199-5 38.602-9.1992 6.6016-3.1992 10.801-5.1992 21.398-5.1992 10.398 0 14.801 2 21.398 5.1992 8.6016 4 19.199 9.1992 38.602 9.1992 19.602 0 30.199-5 38.602-9.1992 0.39844-0.19922 1-0.39844 1.3984-0.60156v42.602h-320v-42.602zm180 82.602v80h-40v-80zm-80 132.6c0-7 5.6016-12.602 12.602-12.602l7.3984 0.003906h87.398c7 0 12.602 5.6016 12.602 12.602v27.398h-120zm-380 247.4v-160h40v160zm80-20v-120h240v120zm440 40h-160v-200h160zm40-40v-120h240v120zm280 20v-160h40v160z"/>
</svg>
